<?xml version="1.0" ?><svg id="Layer_1" style="enable-background:new 0 0 512 512;" version="1.1" viewBox="0 0 512 512" xml:space="preserve" xmlns="http://www.w3.org/2000/svg" xmlns:xlink="http://www.w3.org/1999/xlink"><style type="text/css">
	.st0{fill:#13252D;}
	.st1{fill:#2F4859;}
	.st2{fill:#E05D53;}
</style><g id="XMLID_866_"><g id="XMLID_865_"><path class="st0" d="M309.8,17.4v25.4c0,6.3-5.1,11.4-11.4,11.4h-84.9c-6.3,0-11.4-5.1-11.4-11.4V17.4    c0-6.3,5.1-11.4,11.4-11.4h84.9C304.7,6,309.8,11.1,309.8,17.4z" id="XMLID_882_"/><path class="st1" d="M354,61.6v420.9c0,12.9-10.5,23.4-23.4,23.4H181.5c-12.9,0-23.4-10.5-23.4-23.4V61.6    c0-12.9,10.5-23.4,23.4-23.4h149.1C343.5,38.2,354,48.7,354,61.6z" id="XMLID_881_"/><path class="st0" d="M325.6,483.3H186.4c-3.2,0-5.8-2.6-5.8-5.8v-411c0-3.2,2.6-5.8,5.8-5.8h139.1    c3.2,0,5.8,2.6,5.8,5.8v411C331.3,480.8,328.7,483.3,325.6,483.3z" id="XMLID_880_"/></g><polygon class="st2" id="XMLID_862_" points="284.5,163.2 207.2,276.7 247.6,276.7 227.6,360.8 304.8,248.7 264.5,248.7  "/></g></svg>