<?xml version="1.0" ?><svg id="Layer_1" style="enable-background:new 0 0 512 512;" version="1.1" viewBox="0 0 512 512" xml:space="preserve" xmlns="http://www.w3.org/2000/svg" xmlns:xlink="http://www.w3.org/1999/xlink"><g><rect height="43.504" style="fill-rule:evenodd;clip-rule:evenodd;fill:#38727A;" width="193.479" x="158.784" y="234.248"/><path d="M206.867,56.034h97.312c4.198,0,7.441,3.244,7.441,7.442   v385.24c0,4.007-3.244,7.251-7.441,7.251h-97.312c-4.007,0-7.441-3.244-7.441-7.251V63.475   C199.426,59.277,202.86,56.034,206.867,56.034L206.867,56.034z" style="fill-rule:evenodd;clip-rule:evenodd;fill:#4F9098;"/><path d="M190.076,118.428c43.695,0,87.39,0,130.894,0   c0,7.632,0,15.456,0,23.278c-43.504,0-87.199,0-130.894,0C190.076,133.883,190.076,126.06,190.076,118.428L190.076,118.428z    M190.076,160.406c43.695,0,87.39,0,130.894,0c0,7.823,0,15.455,0,23.278c-43.504,0-87.199,0-130.894,0   C190.076,175.861,190.076,168.228,190.076,160.406L190.076,160.406z M190.076,202.383c43.695,0,87.39,0,130.894,0   c0,7.823,0,15.456,0,23.279c-43.504,0-87.199,0-130.894,0C190.076,217.838,190.076,210.206,190.076,202.383L190.076,202.383z    M190.076,244.361c43.695,0,87.39,0,130.894,0c0,7.823,0,15.646,0,23.279c-43.504,0-87.199,0-130.894,0   C190.076,260.007,190.076,252.184,190.076,244.361L190.076,244.361z M190.076,286.529c43.695,0,87.39,0,130.894,0   c0,7.632,0,15.455,0,23.278c-43.504,0-87.199,0-130.894,0C190.076,301.985,190.076,294.161,190.076,286.529L190.076,286.529z    M190.076,328.507c43.695,0,87.39,0,130.894,0c0,7.823,0,15.456,0,23.278c-43.504,0-87.199,0-130.894,0   C190.076,343.962,190.076,336.33,190.076,328.507L190.076,328.507z M190.076,370.485c43.695,0,87.39,0,130.894,0   c0,7.823,0,15.455,0,23.278c-43.504,0-87.199,0-130.894,0C190.076,385.94,190.076,378.307,190.076,370.485L190.076,370.485z    M190.076,412.462H320.97v23.279H190.076V412.462z M190.076,76.259H320.97v23.278H190.076V76.259z" style="fill-rule:evenodd;clip-rule:evenodd;fill:#63AFB7;"/><rect height="263.315" style="fill-rule:evenodd;clip-rule:evenodd;fill:#4F9098;" width="39.306" x="352.262" y="124.343"/><rect height="321.892" style="fill-rule:evenodd;clip-rule:evenodd;fill:#38727A;" width="30.911" x="391.569" y="95.149"/><polygon points="88.566,124.343 49.26,124.343 25.6,198.949    25.6,313.242 49.26,387.657 49.26,387.657 88.566,387.657  " style="fill-rule:evenodd;clip-rule:evenodd;fill:#4F9098;"/><path d="M51.74,124.343h-2.48L25.6,198.949v114.294l23.66,74.415l0,0   h2.48C64.334,350.831,71.585,305.228,71.585,256C71.585,206.771,64.334,161.359,51.74,124.343L51.74,124.343z" style="fill-rule:evenodd;clip-rule:evenodd;fill:#38727A;"/><rect height="321.892" style="fill-rule:evenodd;clip-rule:evenodd;fill:#38727A;" width="31.102" x="88.566" y="95.149"/><rect height="263.315" style="fill-rule:evenodd;clip-rule:evenodd;fill:#4F9098;" width="39.116" x="119.668" y="124.343"/><rect height="43.504" style="fill-rule:evenodd;clip-rule:evenodd;fill:#4F9098;" width="63.92" x="422.48" y="234.248"/></g></svg>