<?xml version="1.0" ?><svg id="Layer_1" style="enable-background:new 0 0 512 512;" version="1.1" viewBox="0 0 512 512" xml:space="preserve" xmlns="http://www.w3.org/2000/svg" xmlns:xlink="http://www.w3.org/1999/xlink"><g><path d="M256.129,68.338c103.609,0,187.532,83.924,187.532,187.532   s-83.924,187.791-187.532,187.791c-103.868,0-187.791-84.182-187.791-187.791S152.262,68.338,256.129,68.338L256.129,68.338z    M256.129,145.786c60.871,0,110.085,49.214,110.085,110.085S317,366.214,256.129,366.214c-61.129,0-110.344-49.473-110.344-110.344   S195,145.786,256.129,145.786L256.129,145.786z" style="fill-rule:evenodd;clip-rule:evenodd;fill:#FBC800;"/><path d="M141.383,107.192l-15.542-27.197   c-3.626-6.216-1.554-13.987,4.663-17.614l20.722-11.914c5.958-3.627,13.987-1.554,17.613,4.662l15.542,27.197   C169.098,88.801,154.593,97.09,141.383,107.192L141.383,107.192z M244.214,25.6h23.83c6.994,0,12.692,5.699,12.692,12.951v31.342   c-8.03-1.036-16.319-1.554-24.607-1.554c-8.547,0-16.837,0.518-24.866,1.554V38.551C231.263,31.299,236.962,25.6,244.214,25.6   L244.214,25.6z M327.619,82.326l15.542-27.197c3.626-6.216,11.656-8.289,17.613-4.662l20.722,11.914   c6.216,3.627,8.289,11.398,4.663,17.614l-15.542,27.197C357.407,97.09,343.161,88.801,327.619,82.326L327.619,82.326z    M404.808,141.383l27.197-15.801c6.216-3.367,13.987-1.295,17.614,4.922l11.915,20.462c3.626,6.217,1.295,14.247-4.663,17.614   l-27.197,15.801C423.199,168.84,414.91,154.593,404.808,141.383L404.808,141.383z M442.107,231.004h31.342   c7.253,0,12.951,5.958,12.951,12.951v23.83c0,7.252-5.698,12.951-12.951,12.951h-31.342c1.036-8.03,1.554-16.318,1.554-24.866   C443.662,247.582,443.143,239.294,442.107,231.004L442.107,231.004z M429.674,327.361l27.197,15.801   c5.958,3.626,8.289,11.397,4.663,17.613l-11.915,20.722c-3.627,6.216-11.398,8.289-17.614,4.663l-27.197-15.801   C414.91,357.407,423.199,342.902,429.674,327.361L429.674,327.361z M370.617,404.549l15.542,27.456   c3.626,5.958,1.554,13.987-4.663,17.614l-20.722,11.915c-5.958,3.367-13.987,1.295-17.613-4.921l-15.542-27.197   C343.161,423.199,357.407,414.651,370.617,404.549L370.617,404.549z M280.737,442.107v31.342c0,6.993-5.699,12.95-12.692,12.95   h-23.83c-7.252,0-12.951-5.958-12.951-12.95v-31.342c8.03,1.036,16.319,1.554,24.866,1.554   C264.418,443.662,272.707,443.143,280.737,442.107L280.737,442.107z M184.381,429.416l-15.542,27.197   c-3.626,6.216-11.656,8.288-17.613,4.921l-20.722-11.915c-6.216-3.627-8.289-11.656-4.663-17.614l15.542-27.456   C154.593,414.651,169.098,423.199,184.381,429.416L184.381,429.416z M107.192,370.358l-27.197,15.801   c-5.958,3.626-13.987,1.554-17.614-4.663l-11.915-20.722c-3.626-6.216-1.295-13.987,4.663-17.613l27.197-15.801   C88.801,342.902,97.09,357.407,107.192,370.358L107.192,370.358z M69.893,280.737H38.551c-7.253,0-12.951-5.699-12.951-12.951   v-23.83c0-6.994,5.698-12.951,12.951-12.951h31.342c-1.036,8.289-1.554,16.578-1.554,24.866   C68.338,264.419,68.857,272.707,69.893,280.737L69.893,280.737z M82.326,184.381L55.128,168.58   c-5.958-3.367-8.289-11.397-4.663-17.614l11.915-20.462c3.627-6.216,11.656-8.289,17.614-4.922l27.197,15.801   C97.09,154.593,88.801,168.84,82.326,184.381L82.326,184.381z" style="fill-rule:evenodd;clip-rule:evenodd;fill:#EABB0A;"/><path d="M338.24,182.308l-73.562,73.562l73.562,73.562   c-2.849,3.108-5.699,5.958-8.548,8.548l-73.562-73.562l-73.562,73.562c-3.108-2.591-5.958-5.44-8.548-8.548l73.563-73.562   l-73.563-73.562c2.591-2.849,5.44-5.699,8.548-8.548l73.562,73.562l73.562-73.562C332.541,176.61,335.39,179.459,338.24,182.308   L338.24,182.308z" style="fill-rule:evenodd;clip-rule:evenodd;fill:#EABB0A;"/><path d="M301.718,218.571l-37.04,37.299l37.04,37.299   c-2.332,3.108-5.181,5.958-8.289,8.548l-37.299-37.299l-37.299,37.299c-3.108-2.591-6.216-5.44-8.547-8.548l37.299-37.299   l-37.299-37.299c2.331-3.108,5.439-5.958,8.547-8.548l37.299,37.299l37.299-37.299   C296.537,212.614,299.386,215.463,301.718,218.571L301.718,218.571z" style="fill-rule:evenodd;clip-rule:evenodd;fill:#DCB002;"/><path d="M256.129,205.361c27.974,0,50.509,22.535,50.509,50.509   c0,27.975-22.535,50.768-50.509,50.768c-27.975,0-50.768-22.793-50.768-50.768C205.361,227.896,228.155,205.361,256.129,205.361   L256.129,205.361z" style="fill-rule:evenodd;clip-rule:evenodd;fill:#FBC800;"/></g></svg>