<?xml version="1.0" ?><svg viewBox="0 0 64 64" xmlns="http://www.w3.org/2000/svg"><title/><g id="outline"><path d="M61,14H57V9a1,1,0,0,0-1-1H50a1,1,0,0,0-1,1v5H45V5a3,3,0,0,0-3-3H22a3,3,0,0,0-3,3v9H15V9a1,1,0,0,0-1-1H8A1,1,0,0,0,7,9v5H3a1,1,0,0,0-1,1v6a1,1,0,0,0,1,1H4V54H3a1,1,0,0,0-1,1v6a1,1,0,0,0,1,1H61a1,1,0,0,0,1-1V55a1,1,0,0,0-1-1H60V22h1a1,1,0,0,0,1-1V15A1,1,0,0,0,61,14ZM51,10h4v4H51ZM21,5a1,1,0,0,1,1-1H42a1,1,0,0,1,1,1v9H41V7a1,1,0,0,0-1-1H24a1,1,0,0,0-1,1v7H21ZM39,8v6H25V8ZM9,10h4v4H9ZM60,60H4V56H60ZM6,54V22H58V54ZM60,20H4V16H60Z"/><path d="M12,28H30V26H11a1,1,0,0,0-1,1V49a1,1,0,0,0,1,1H24V48H12Z"/><path d="M53,26H40v2H52V48H35v2H53a1,1,0,0,0,1-1V27A1,1,0,0,0,53,26Z"/><path d="M41.924,36.617A1,1,0,0,0,41,36H35.281L37.97,25.242a1,1,0,0,0-1.677-.949l-14,14a1,1,0,0,0,.7,1.707l5.733.068L26.03,50.756a1,1,0,0,0,1.677.951l14-14A1,1,0,0,0,41.924,36.617ZM28.854,47.731l2.116-8.4a1,1,0,0,0-.958-1.244l-4.626-.055,9.768-9.768-2.124,8.5A1,1,0,0,0,34,38h4.586Z"/><polygon points="18 36 18 34 20 34 20 32 18 32 18 30 16 30 16 32 14 32 14 34 16 34 16 36 18 36"/><rect height="2" width="6" x="44" y="32"/></g></svg>