<?xml version="1.0" ?><svg viewBox="0 0 64 64" xmlns="http://www.w3.org/2000/svg"><g id="color"><rect height="8" style="fill:#999" width="5" x="56" y="28"/><rect height="24" rx="2" ry="2" style="fill:#b3b3b3" width="54" x="3" y="20"/><rect height="46" style="fill:#e6e6e6" transform="translate(-2 62) rotate(-90)" width="16" x="22" y="9"/><polygon points="15 24 21 40 7 40 7 24 15 24" style="fill:#c1272d"/><path d="M13.4,48H47.516a2,2,0,0,0,1.727-3.009l-17.5-29.958a2,2,0,0,0-3.476.039L11.648,45.03A2,2,0,0,0,13.4,48Z" style="fill:#f7cd00"/><path d="M17.978,42.52,29.213,22.013a1,1,0,0,1,1.743-.019L42.783,42.5a1,1,0,0,1-.866,1.5H18.855A1,1,0,0,1,17.978,42.52Z" style="fill:#f2f2f2"/><rect height="8" style="fill:#c1272d" width="2" x="29" y="29"/><rect height="2" style="fill:#c1272d" width="2" x="29" y="39"/></g><g id="outline"><path d="M29.216,20.553,16.944,42.512A1,1,0,0,0,17.817,44H43.006a1,1,0,0,0,.862-1.507L30.951,20.534a1,1,0,0,0-1.735.019Zm.895,2.5L41.258,42H19.522Z"/><rect height="8" width="2" x="29" y="29"/><rect height="2" width="2" x="29" y="39"/><path d="M61,27H58V20a1,1,0,0,0-1-1H34.689l-3.827-6.507A1,1,0,0,0,30,12h-.011a1,1,0,0,0-.862.512L25.5,19H3a1,1,0,0,0-1,1V44a1,1,0,0,0,1,1h7.972l-.845,1.512A1,1,0,0,0,11,48H50a1,1,0,0,0,.862-1.507L49.983,45H57a1,1,0,0,0,1-1V37h3a1,1,0,0,0,1-1V28A1,1,0,0,0,61,27ZM4,43V21H24.384l-5.65,10.11-2.8-7.461A1,1,0,0,0,15,23H7a1,1,0,0,0-1,1V40a1,1,0,0,0,1,1h6.207L12.09,43Zm10.325-4H8V25h6.307l3.149,8.4Zm-1.62,7L30.022,15.01,48.251,46ZM56,43H48.807L35.866,21H56V43Zm4-8H58V29h2Z"/></g></svg>