<?xml version="1.0" ?><!DOCTYPE svg  PUBLIC '-//W3C//DTD SVG 1.1//EN'  'http://www.w3.org/Graphics/SVG/1.1/DTD/svg11.dtd'><svg enable-background="new 0 0 143.4 143.464" height="143.464px" id="Layer_1" version="1.1" viewBox="0 0 143.4 143.464" width="143.4px" xml:space="preserve" xmlns="http://www.w3.org/2000/svg" xmlns:xlink="http://www.w3.org/1999/xlink"><g><path d="M87.358,112.406c-1.011-1.122-2.983-1.612-4.438-1.198c-19.871,5.66-41.233-4.371-49.224-23.943   c-8.58-21.005,1.496-44.989,22.5-53.564c21.005-8.58,44.991,1.493,53.567,22.498c3.652,8.94,3.888,18.407,1.369,27.007   c-0.425,1.452,0.056,3.421,1.181,4.436l20.729,18.647c1.123,1.014,2.229,1.946,2.475,2.068c0.246,0.121,1.486-0.47,2.493-1.599   c0.849-0.952,1.566-2.067,2.097-3.331l2.126-5.05c2.34-5.579,0.21-11.792-4.758-13.878l-5.174-2.176   c-1.394-0.586-2.315-2.268-2.14-3.771c0.514-4.297,0.555-8.674,0.09-13.067c-0.158-1.505,0.776-3.179,2.173-3.749   c1.468-0.595,3.247-1.325,5.179-2.114c4.986-2.036,7.178-8.23,4.891-13.831l-2.074-5.07c-2.285-5.602-8.184-8.491-13.17-6.455   l-5.172,2.111c-1.399,0.574-3.246,0.037-4.188-1.152c-2.736-3.459-5.832-6.558-9.203-9.271c-1.178-0.949-1.702-2.793-1.115-4.188   c0.612-1.457,1.361-3.242,2.176-5.176c2.085-4.968-0.745-10.896-6.32-13.238L98.373,1.23c-5.576-2.343-11.791-0.215-13.878,4.757   l-2.183,5.191c-0.586,1.394-2.27,2.32-3.775,2.144c-4.293-0.506-8.666-0.559-13.048-0.093c-1.502,0.157-3.179-0.78-3.75-2.179   c-0.617-1.512-1.458-3.572-2.39-5.844C57.464,0.578,51.393-1.317,45.79,0.97L40.72,3.042c-5.604,2.287-8.613,7.891-6.721,12.516   l2.386,5.841c0.572,1.403,0.031,3.246-1.153,4.186c-3.461,2.735-6.563,5.823-9.276,9.193c-0.949,1.177-2.798,1.699-4.193,1.112   c-1.5-0.633-3.557-1.493-5.821-2.446C11.33,31.506,5.692,34.46,3.352,40.036l-2.123,5.052c-2.34,5.579-0.506,11.669,4.106,13.608   l5.821,2.443c1.394,0.587,2.317,2.266,2.142,3.772c-0.508,4.298-0.542,8.673-0.074,13.063c0.162,1.503-0.776,3.176-2.176,3.747   c-1.514,0.616-3.573,1.458-5.845,2.388c-4.625,1.886-6.52,7.957-4.231,13.561l2.067,5.071c2.286,5.603,7.891,8.61,12.517,6.722   l5.843-2.385c1.399-0.572,3.244-0.037,4.181,1.15c2.736,3.461,5.827,6.562,9.196,9.277c1.177,0.951,1.698,2.797,1.112,4.192   c-0.633,1.503-1.494,3.556-2.447,5.823c-1.938,4.609,1.017,10.245,6.592,12.586l5.05,2.123c5.578,2.344,11.668,0.508,13.609-4.106   l2.444-5.819c0.586-1.395,2.268-2.318,3.771-2.141c4.297,0.505,8.676,0.539,13.064,0.07c1.501-0.16,3.177,0.777,3.747,2.178   c0.616,1.512,1.458,3.571,2.386,5.844c1.889,4.629,7.962,6.525,13.564,4.236l5.068-2.07c1.451-0.592,2.711-1.41,3.764-2.377   c1.112-1.023,1.701-2.252,1.58-2.477c-0.1-0.185-0.182-0.319-0.234-0.394L87.358,112.406z" fill="#505050"/><path d="M97.614,80.168c4.284-13.198-4.902-33.674-28.867-27.673c-1.465,0.367-1.763,1.611-0.696,2.678l9.563,9.563   c3.209,3.208,3.209,8.411,0,11.62l-1.452,1.453c-3.208,3.208-8.412,3.208-11.619,0l-9.565-9.564   c-1.066-1.066-2.311-0.767-2.679,0.697c-5.999,23.962,14.477,33.152,27.674,28.865c1.436-0.466,3.346-0.124,4.354,0.997   l28.688,31.891c1.012,1.121,1.919,3.27,2.43,4.689c0.495,1.381,1.269,2.641,2.333,3.703c4.709,4.709,13.249,3.799,19.082-2.033   c5.832-5.83,6.742-14.372,2.033-19.081c-1.064-1.064-2.324-1.838-3.703-2.334c-1.42-0.51-3.569-1.418-4.689-2.429L98.609,84.522   C97.488,83.513,97.148,81.603,97.614,80.168z M130.818,131.013c-2.134,2.133-5.666,2.063-7.889-0.162   c-2.221-2.222-2.294-5.752-0.159-7.887c2.136-2.136,5.666-2.063,7.888,0.16C132.881,125.347,132.953,128.877,130.818,131.013z" fill="#505050"/></g></svg>