<?xml version="1.0" ?><svg id="Layer_1" style="enable-background:new 0 0 64 64;" version="1.1" viewBox="0 0 64 64" xml:space="preserve" xmlns="http://www.w3.org/2000/svg" xmlns:xlink="http://www.w3.org/1999/xlink"><g><path d="M32.0283394,10.4538574c1.4663086,0,2.7753906,0.7592773,3.5019531,2.03125l4.7993164,8.3989258   c0.2744141,0.4804688,0.8857422,0.6474609,1.3642578,0.3720703c0.4794922-0.2739258,0.6459961-0.8847656,0.3720703-1.3642578   l-4.7993164-8.3989258c-1.0864258-1.902832-3.0449219-3.0390625-5.2387695-3.0390625   c-2.1933575,0-4.1513653,1.1362305-5.2373028,3.0385742l-4.0019531,6.9990234l-3.8320313-2.2084961l4.137207-7.1333008   c1.8657227-3.2216797,5.2021484-5.1464844,8.9257793-5.1484375c0.0019531,0,0.003418,0,0.0053711,0   c3.7255859,0,7.0673828,1.9248047,8.9389648,5.1494141l6.6201172,11.4101563   c0.1357422,0.2338867,0.3603516,0.402832,0.6230469,0.4682617c0.2597656,0.0654297,0.5395508,0.0214844,0.7700195-0.1210938   l3.7626953-2.3408203l-1.5151367,12.7011719l-12.0595703-4.2680664l4.3208008-2.6821289   c0.4692383-0.2915039,0.6137695-0.9077148,0.3222656-1.3769531c-0.2919922-0.4702148-0.9086914-0.6147461-1.3769531-0.3222656   l-6.0898438,3.7802734c-0.3266602,0.2026367-0.5083008,0.574707-0.4667969,0.9570313s0.2983398,0.7070313,0.6606445,0.8354492   l15.1992188,5.3793945c0.1083984,0.0385742,0.2211914,0.0576172,0.3339844,0.0576172   c0.184082,0,0.3666992-0.0507813,0.5268555-0.1503906c0.2583008-0.159668,0.4296875-0.4287109,0.4658203-0.7299805   l1.9106445-16.0112305c0.0454102-0.3818359-0.1323242-0.7558594-0.456543-0.9619141   c-0.324707-0.206543-0.7392578-0.2089844-1.0649414-0.0053711l-4.6538086,2.8950195L42.6933784,8.1467285   C40.45998,4.2980957,36.472187,2.0012207,32.0249214,2.0012207c-0.0019531,0-0.0043945,0-0.0063477,0   c-4.4453106,0.0024414-8.4282207,2.300293-10.6552715,6.1455078l-4.6401367,8   c-0.1333008,0.2299805-0.1694336,0.503418-0.1010742,0.7602539c0.0688477,0.2568359,0.2368164,0.4755859,0.4667969,0.6079102   l5.5703125,3.2099609c0.2304688,0.1328125,0.5043945,0.1679688,0.7607422,0.0991211   c0.2563477-0.0693359,0.4750977-0.2382813,0.6069336-0.46875l4.5004883-7.8706055   C29.2529507,11.2131348,30.5620327,10.4538574,32.0283394,10.4538574z"/><path d="M59.5341988,37.1877441l-2.1699219-3.75c-0.2768555-0.4775391-0.8881836-0.6411133-1.3657227-0.3652344   l-5.6801758,3.2797852c-0.4770508,0.2753906-0.6416016,0.8847656-0.3681641,1.362793l1.550293,2.7099609   c0.8349609,1.4614258,0.8295898,3.203125-0.0151367,4.6586914c-0.8447266,1.4560547-2.3540039,2.3251953-4.0366211,2.3251953   H42.128437c-0.5522461,0-1,0.4477539-1,1s0.4477539,1,1,1h5.3203125c2.4038086,0,4.5595703-1.2416992,5.7666016-3.3212891   c1.206543-2.0795898,1.2148438-4.5673828,0.0214844-6.6552734l-1.0561523-1.8457031l3.9526367-2.2822266l1.6708984,2.8867188   c1.8769531,3.2285156,1.8852539,7.0888672,0.0229492,10.3266602c-1.8666992,3.2441406-5.2158203,5.1811523-8.9584961,5.1811523   h-10.550293c-0.5522461,0-1,0.4477539-1,1v4.2202148l-9.9897442-7.9897461l9.9897442-7.9990234v5.4785156   c0,0.5522461,0.4477539,1,1,1s1-0.4477539,1-1V40.848877c0-0.3842773-0.2202148-0.7348633-0.5668945-0.9013672   c-0.3452148-0.1669922-0.7578125-0.1196289-1.0581055,0.1206055L25.1040249,50.1481934   c-0.2373047,0.1894531-0.3754883,0.4765625-0.3754883,0.7802734s0.1376953,0.5913086,0.375,0.7807617l12.5903301,10.0708008   c0.1806641,0.1445313,0.4018555,0.21875,0.6245117,0.21875c0.1474609,0,0.2954102-0.0327148,0.4331055-0.0986328   c0.3466797-0.1665039,0.5668945-0.5170898,0.5668945-0.9013672v-5.2998047h9.550293   c4.4672852,0,8.4643555-2.3120117,10.6918945-6.184082C61.7841988,45.6491699,61.7739449,41.0402832,59.5341988,37.1877441z"/><path d="M21.9985561,47.4089355h-5.3901367c-1.6826181,0-3.1914072-0.8691406-4.0361338-2.324707   c-0.8452148-1.4555664-0.8505859-3.1972656-0.015625-4.6586914l1.7026367-2.9760742   c0.2739258-0.4794922,0.1079102-1.090332-0.371582-1.3647461c-0.4804688-0.2739258-1.0898438-0.1079102-1.3647461,0.371582   l-1.7026367,2.9765625c-1.1928711,2.0878906-1.1845703,4.5756836,0.0219727,6.6552734s3.3623047,3.3208008,5.7661142,3.3208008   h4.3901367v4.2900391h-5.8100595c-3.7436523,0-7.09375-1.9350586-8.9604492-5.1767578   c-1.8652344-3.237793-1.859375-7.1000977,0.0151367-10.331543l4.1201172-7.1000977   c0.2714844-0.4672852,0.1225586-1.0654297-0.3364258-1.3510742l-3.9541016-2.4609375l12.0595713-4.2607422l1.515625,12.7006836   l-4.0610361-2.5288086c-0.4667969-0.2900391-1.0844727-0.1484375-1.3774414,0.3208008   c-0.2915039,0.46875-0.1484375,1.0854492,0.3208008,1.3774414l5.8300791,3.6298828   c0.3261719,0.203125,0.7407227,0.2006836,1.0649414-0.0053711c0.324707-0.206543,0.5019531-0.5805664,0.4560547-0.9624023   l-1.909668-16.0087891c-0.0356445-0.3017578-0.206543-0.5708008-0.4648438-0.7314453   c-0.2578125-0.1601563-0.574707-0.1953125-0.8613281-0.09375l-15.199708,5.3696289   c-0.362793,0.1279297-0.6196289,0.4526367-0.6611328,0.8344727c-0.0415039,0.3823242,0.1396484,0.7543945,0.4658203,0.9575195   l4.8964844,3.0473633l-3.6337891,6.2617188c-2.237793,3.8579102-2.2446289,8.46875-0.0185547,12.3334961   c2.2285156,3.8691406,6.2260742,6.1787109,10.6938477,6.1787109h6.8100595c0.5522461,0,1-0.4477539,1-1v-6.2900391   C22.9985561,47.8566895,22.5508022,47.4089355,21.9985561,47.4089355z"/></g></svg>