<?xml version="1.0" ?><svg data-name="Layer 1" id="Layer_1" viewBox="0 0 512 512" xmlns="http://www.w3.org/2000/svg"><defs><style>.cls-1{fill:#2ecc71;}.cls-2{fill:#105e30;opacity:0.25;}</style></defs><title/><circle class="cls-1" cx="92.444" cy="323.556" r="81.778"/><circle class="cls-1" cx="92.444" cy="323.556" r="81.778"/><path class="cls-2" d="M10.667,323.559a81.778,81.778,0,0,0,163.555,0Z"/><circle class="cls-1" cx="419.556" cy="323.556" r="81.778"/><path class="cls-2" d="M337.778,323.559a81.778,81.778,0,0,0,163.555,0Z"/><path d="M419.556,231.111a92.144,92.144,0,0,0-26.74,3.949L341.785,117.333h52.881a10.667,10.667,0,1,0,0-21.333h-69.13a10.667,10.667,0,0,0-9.786,14.909l26.323,60.728h-140.3l-23.537-54.3h35.1a10.667,10.667,0,1,0,0-21.333H117.38a10.667,10.667,0,0,0,0,21.333h37.6l27.573,63.614-44.9,62a92.429,92.429,0,1,0,46.615,91.275H256a10.663,10.663,0,0,0,8.639-4.41L355.973,203.7l17.281,39.866a92.409,92.409,0,1,0,46.3-12.457ZM192.419,203.7l47.326,109.188H184.271a92.3,92.3,0,0,0-29.352-57.409ZM162.754,312.889H113.341L142.3,272.907A70.983,70.983,0,0,1,162.754,312.889ZM92.445,394.667a71.111,71.111,0,1,1,32.584-134.286L83.806,317.3a10.666,10.666,0,0,0,8.639,16.923h70.31A71.22,71.22,0,0,1,92.445,394.667Zm165.893-92.524L211.019,192.97H337.405Zm161.218,92.524a71.084,71.084,0,0,1-37.738-131.34L409.764,327.8a10.667,10.667,0,0,0,19.573-8.485l-27.96-64.5a71.11,71.11,0,1,1,18.179,139.858Z"/></svg>