<?xml version="1.0" encoding="UTF-8"?>
<svg id="Layer_1" xmlns="http://www.w3.org/2000/svg" viewBox="0 0 98.99 105.9">
  <defs>
    <style>
      .cls-1 {
        stroke: #000;
        stroke-miterlimit: 10;
        stroke-width: 3px;
      }
    </style>
  </defs>
  <path class="cls-1" d="M84.72,104.4h-24c-1.1,0-2-.9-2-2v-32.48h-18.19v32.48c0,1.1-.9,2-2,2H14.52c-1.1,0-2-.9-2-2v-50.88c0-.52.2-1.02.57-1.4L48.29,14.04c.38-.39.89-.6,1.43-.6h0c.54,0,1.06.22,1.43.61l35,36.08c.36.37.56.87.56,1.39v50.88c0,1.1-.9,2-2,2ZM62.72,100.4h20v-48.07L49.71,18.31,16.52,52.33v48.07h20v-32.48c0-1.1.9-2,2-2h22.19c1.1,0,2,.9,2,2v32.48Z"/>
  <path class="cls-1" d="M3.5,53.29c-.5,0-1-.19-1.39-.56-.8-.77-.82-2.03-.05-2.83L48.11,2.11c.38-.39.89-.61,1.43-.61.59,0,1.06.22,1.44.6l45.94,46.99c.77.79.76,2.06-.03,2.83-.79.77-2.06.76-2.83-.03L49.56,6.37,4.94,52.68c-.39.41-.92.61-1.44.61Z"/>
  <path class="cls-1" d="M21.86,34.24c-1.1,0-2-.9-2-2V9.43c0-1.1.9-2,2-2s2,.9,2,2v22.81c0,1.1-.9,2-2,2Z"/>
</svg>