<?xml version="1.0" encoding="UTF-8"?>
<svg id="Layer_1" xmlns="http://www.w3.org/2000/svg" viewBox="0 0 408.39 304.84">
  <defs>
    <style>
      .cls-1 {
        fill: #010101;
      }
    </style>
  </defs>
  <g>
    <path class="cls-1" d="M147.37,257.59c-.44-.3-1.09-.26-1.45.12-2.37,2.37-3.68,5.38-3.68,8.46,0,3.65,1.79,6.95,4.67,9.35,0,0,0,.01.01.01,0,0,.01,0,.01.01,2.89,2.4,6.88,3.87,11.29,3.87s8.39-1.48,11.29-3.87c0,0,.01,0,.01-.01,0,0,0-.01.01-.01,2.89-2.4,4.68-5.7,4.68-9.35s-1.78-6.92-4.63-9.3c-.01-.02-.03-.04-.04-.06-.01-.01-.04-.02-.07-.04-2.88-2.36-6.84-3.83-11.2-3.83-.01,0-.03-.01-.04-.01s-.03.01-.04.01c-1.2,0-2.4.12-3.55.34l-7.52-13.84h8.31c-.16.36-.39.69-.72.96-.58.48-1.38.75-2.19.75-.56,0-1.03.39-1.03.85s.47.85,1.03.85c1.35,0,2.69-.46,3.65-1.25.97-.81,1.51-1.88,1.51-3.03h0c0-1.12-.55-2.23-1.51-3.03-.97-.81-2.27-1.25-3.65-1.25h-7.94c-1.69,0-3.23.7-4.03,1.86-.71,1.04-.76,2.26-.18,3.32l2.24,4.16h-21.34c-.07,0-.11-.04-.13-.06l-1.82-3.35h1.95c1.83,0,3.33-1.24,3.33-2.76s-1.5-2.76-3.33-2.76h-3.32c-.85,0-1.64-.27-2.24-.75-.99-.79-2.3-1.24-3.68-1.24h-1.4c-1.83,0-3.33,1.24-3.33,2.76v1.99c0,1.52,1.5,2.76,3.33,2.76h1.9l2.17,4.01s.04.11-.03.2c-1.03,1.32-3.82,5.21-6.7,9.26-1.68-.48-3.43-.75-5.22-.75-.01,0-.03-.01-.04-.01s-.03.01-.04.01c-4.36.01-8.31,1.47-11.19,3.83-.03.01-.04.02-.07.04-.01.01-.03.04-.04.06-2.86,2.38-4.63,5.67-4.63,9.3s1.79,6.95,4.67,9.35c0,0,0,.01.01.01,0,0,.01,0,.01.01,2.89,2.4,6.88,3.87,11.29,3.87s8.28-1.46,11.2-3.82c.03-.02.07-.04.1-.06s.03-.05.06-.07c2.16-1.8,3.7-4.13,4.32-6.73h7.25c1.03,1.32,2.81,2.2,4.84,2.2.51,0,1-.07,1.47-.18l1.64,2.87h-1.17c-.56,0-1.03.39-1.03.85s.47.85,1.03.85h5.21c.56,0,1.03-.39,1.03-.85s-.47-.85-1.03-.85h-1.76l-2.05-3.6c1.45-.86,2.41-2.27,2.41-3.87,0-.49-.11-.96-.28-1.4l11.81-11.64,5.26,9.7c-.69.74-1.14,1.58-1.31,2.49h-7.35c.21-2.38,1.31-4.66,3.16-6.51.35-.36.3-.9-.14-1.2ZM159.25,254.68c3.06.19,5.85,1.19,8.04,2.76l-5.19,4.3c-.83-.5-1.79-.84-2.85-.98v-6.08ZM172.09,265.31h-7.35c-.17-.88-.58-1.67-1.17-2.35l5.19-4.3c1.89,1.81,3.1,4.11,3.33,6.65ZM168.76,273.69l-5.19-4.3c.61-.69,1.02-1.48,1.17-2.36h7.35c-.23,2.54-1.44,4.84-3.33,6.66ZM162.1,270.59l5.19,4.3c-2.2,1.57-4.98,2.57-8.04,2.76v-6.09c1.04-.13,2.02-.47,2.85-.97ZM157.18,277.66c-3.06-.19-5.84-1.19-8.03-2.76l5.19-4.3c.82.5,1.79.83,2.84.97v6.09ZM152.89,269.38l-5.19,4.3c-1.89-1.82-3.1-4.13-3.33-6.66h7.35c.16.86.56,1.67,1.17,2.36ZM157.18,254.69v3.3l-1.68-3.11c.55-.09,1.11-.15,1.68-.19ZM109.37,237.47v-1.99c0-.57.56-1.04,1.26-1.04h1.4c.85,0,1.64.27,2.24.75.99.79,2.3,1.24,3.68,1.24h3.32c.69,0,1.26.47,1.26,1.04s-.56,1.04-1.26,1.04h-10.62c-.71,0-1.27-.47-1.27-1.04ZM100.03,267.42c.54.81,1.57,1.31,2.69,1.31h3.32c-.85.75-2.03,1.2-3.33,1.2s-2.38-.42-3.2-1.1h-.01c-.82-.68-1.34-1.62-1.34-2.66,0-1.8,1.52-3.3,3.57-3.68-.93,1.33-1.57,2.21-1.66,2.36-.58.79-.59,1.79-.03,2.57ZM88.86,267.02h7.35c.17.88.58,1.67,1.18,2.36l-5.21,4.3c-1.89-1.82-3.1-4.13-3.33-6.66ZM92.19,258.66l5.19,4.3c-.61.69-1.02,1.48-1.17,2.36h-7.35c.23-2.55,1.44-4.85,3.33-6.66ZM101.68,260.77c-1.06.14-2.02.48-2.84.97l-5.19-4.3c2.19-1.57,4.98-2.57,8.03-2.76v6.09ZM98.85,270.59c.82.5,1.79.83,2.84.97v6.09c-3.06-.19-5.84-1.19-8.03-2.76l5.19-4.3ZM103.75,271.58c1.04-.14,2.02-.48,2.86-.98l5.19,4.3c-2.21,1.58-5.01,2.58-8.04,2.77v-6.09h-.01ZM103.75,259.63v-4.96c1.09.07,2.14.22,3.16.49-1.11,1.57-2.2,3.1-3.16,4.46ZM113.25,273.67l-5.19-4.3c.18-.21.34-.42.49-.64h7.74c-.52,1.87-1.59,3.55-3.05,4.94ZM118.38,263.6c-.35-1.48-.99-2.89-1.92-4.2-.3-.41-.93-.54-1.41-.3-.49.25-.65.77-.35,1.17.75,1.04,1.27,2.15,1.59,3.32h-8.15l9.68-13.62,7.38,13.62h-6.81ZM132.91,268.45l-1.5-2.64c-.24-.43-.86-.61-1.37-.41-.52.2-.73.71-.49,1.13l1.5,2.64c-.18.02-.37.05-.56.05-1.48,0-2.75-.72-3.33-1.78-.08-.13-.13-.28-.18-.42-.03-.07-.07-.14-.08-.22-.06-.21-.08-.42-.08-.64s.03-.43.08-.64c.01-.08.06-.15.08-.23.06-.14.1-.28.18-.41.08-.14.17-.28.27-.41h.01c.16-.2.32-.36.51-.51.06-.05.13-.09.2-.13.13-.09.27-.18.41-.26.1-.05.2-.09.28-.13.14-.06.27-.11.41-.15.1-.04.21-.06.31-.08.16-.04.31-.06.47-.07s.31-.04.47-.04c.41,0,.79.07,1.16.18.13.04.25.07.38.12.11.05.23.09.32.15.11.06.23.12.34.19.1.06.18.12.28.19.11.08.21.18.3.27.07.07.14.13.21.21.1.12.18.25.27.37.27.42.42.89.42,1.4-.01.9-.49,1.72-1.26,2.28ZM130.81,261.43l-6.86-12.65h20.12l-12.87,12.68c-.14-.01-.27-.02-.39-.04ZM148.16,250.67s-.1-.01-.14-.01c-.3,0-.59.11-.79.3l-12.33,12.14c-.07-.07-.16-.13-.24-.2-.08-.08-.18-.15-.27-.23-.17-.13-.35-.26-.54-.37-.1-.06-.2-.12-.31-.18-.08-.05-.14-.09-.23-.13l12.68-12.5c.45-.44.55-1.05.24-1.59-.3-.54-.93-.86-1.62-.86h-21.47c-.52,0-1,.22-1.3.58-.28.36-.34.83-.11,1.23l6.93,12.76c-.08.02-.16.06-.24.09-.13.05-.25.09-.38.14-.2.08-.39.16-.59.27-.11.06-.23.13-.34.19-.08.05-.17.08-.25.14l-7.39-13.58c-.27-.5-.85-.83-1.51-.86-.65-.04-1.3.25-1.65.72l-10.88,15.3c-.18.27-.2.6,0,.86.18.27.52.43.9.43h18.47c-.06.28-.08.56-.08.85s.03.57.08.85h-22.08c-.37,0-.71-.16-.9-.44-.18-.26-.18-.58.01-.84.04-.05,1.07-1.52,2.58-3.66.03-.02.04-.06.06-.08,1.35-1.92,3.08-4.34,4.8-6.77.06-.06.11-.11.14-.18,0-.01,0-.02.01-.04,2.99-4.2,5.95-8.32,6.98-9.67.44-.56.49-1.26.16-1.83l-1.78-3.3h2.26l2.2,4.07c.37.64,1.16,1.06,2.02,1.06h22.95c.35,0,.68-.15.86-.39.2-.25.23-.55.07-.82l-2.89-5.36c-.31-.57-.28-1.23.1-1.78.42-.61,1.27-.98,2.23-.98h7.94c.83,0,1.61.27,2.19.75.32.27.58.6.73.96h-9.92c-.35,0-.68.15-.87.39-.18.25-.21.55-.07.82l8.44,15.56v.02s.04.06.06.09l6.08,11.21c.11.21.13.44.03.65s-.3.39-.54.47h0c-.49.19-1.13-.01-1.37-.43l-8.32-15.33c-.14-.27-.44-.46-.79-.5ZM155.4,267.21c.49.92,1.61,1.52,2.84,1.52.44,0,.87-.08,1.27-.22.76-.28,1.33-.78,1.62-1.43.3-.64.27-1.34-.07-1.96l-1.35-2.5c1.79.51,3.09,1.9,3.09,3.55,0,2.08-2.05,3.77-4.56,3.77s-4.56-1.69-4.56-3.77c0-.51.13-1.01.37-1.47l1.35,2.51Z"/>
    <path class="cls-1" d="M123.97,293.95c.2,0,.39-.05.56-.14.48-.26.61-.78.3-1.18-.31-.39-.49-.72-.61-1.04-.07-.2-.11-.42-.11-.63-.01-.47-.52-.88-1.06-.83-.56.01-1.02.41-1,.88.01.36.08.72.2,1.06.17.49.45.97.87,1.51.17.23.51.37.85.37Z"/>
    <path class="cls-1" d="M126,295.35c-.55.14-.86.61-.69,1.06.1.29.16.6.16.91,0,.29-.04.6-.14.89-.14.46.2.92.76,1.04.08.01.17.02.25.02.47,0,.89-.26,1-.65.13-.43.2-.86.2-1.3,0-.48-.08-.96-.24-1.4-.18-.46-.75-.71-1.3-.57Z"/>
    <path class="cls-1" d="M103.56,295.82c-.34-.39-.99-.47-1.44-.19-.47.28-.56.82-.23,1.19.56.64,1.2,1.26,1.86,1.83.2.18.47.26.75.26.25,0,.52-.08.72-.25.41-.33.42-.86.03-1.22-.61-.5-1.17-1.06-1.69-1.64Z"/>
    <path class="cls-1" d="M101.4,292.55c.44-.36.72-.86.72-1.41,0-1.1-1.09-2-2.41-2s-2.41.9-2.41,2c0,1.03.95,1.86,2.14,1.98.06.13.11.26.17.37.17.33.55.53.96.53.13,0,.27-.02.39-.07.52-.19.78-.68.55-1.12-.04-.08-.07-.18-.11-.27Z"/>
    <path class="cls-1" d="M117.23,302.08c-.31-.01-.61-.02-.92-.06-.55-.05-1.1-.12-1.65-.21-.56-.09-1.1.2-1.21.67s.24.91.8,1.01c.62.11,1.24.19,1.86.23.34.02.69.05,1.04.06h.04c.55,0,1.02-.36,1.03-.82s-.42-.85-1-.88Z"/>
    <path class="cls-1" d="M126.79,285.76c-1.04.32-1.95.77-2.69,1.33-.42.32-.45.86-.06,1.22.2.19.48.28.76.28.25,0,.51-.07.71-.22.55-.42,1.23-.75,2-.98.54-.16.8-.65.62-1.1-.21-.46-.8-.69-1.34-.53Z"/>
    <path class="cls-1" d="M110.74,300.74c-.78-.3-1.55-.67-2.27-1.06-.48-.26-1.11-.15-1.42.25s-.18.92.3,1.18c.8.44,1.66.84,2.53,1.18.14.06.3.08.44.08.38,0,.76-.18.93-.49.24-.42.01-.93-.49-1.13Z"/>
    <path class="cls-1" d="M123.32,300.75l-.18.12c-.56.33-1.21.6-1.92.79-.54.15-.83.63-.65,1.09.14.36.55.58.97.58.11,0,.23-.01.32-.05.9-.26,1.74-.6,2.47-1.03.08-.06.18-.11.27-.16.45-.29.52-.83.17-1.2-.35-.36-1.02-.43-1.45-.14Z"/>
    <path class="cls-1" d="M155.74,301.56c-.68-.29-1.33-.62-1.95-.97l-.27-.15c-.47-.28-1.11-.19-1.44.2-.34.39-.23.92.24,1.19l.28.16c.69.4,1.42.77,2.19,1.1.16.06.31.09.47.09.38,0,.73-.16.92-.47.27-.43.07-.95-.44-1.16Z"/>
    <path class="cls-1" d="M148.6,296.44c-.37-.36-1.02-.41-1.45-.11-.44.3-.49.84-.13,1.2.61.6,1.23,1.18,1.88,1.74.2.18.48.27.75.27.25,0,.51-.08.72-.23.41-.33.42-.86.03-1.22-.62-.53-1.21-1.09-1.79-1.66Z"/>
    <path class="cls-1" d="M144.09,291.82c-.37-.36-1.03-.4-1.45-.09-.44.3-.49.84-.11,1.2.59.57,1.16,1.16,1.72,1.74.2.21.51.33.8.33.23,0,.45-.06.65-.19.45-.29.52-.83.16-1.2-.58-.61-1.17-1.2-1.76-1.79Z"/>
    <path class="cls-1" d="M138.65,287.64c-.47-.27-1.11-.16-1.44.22-.32.39-.2.92.27,1.19.69.4,1.38.85,2.06,1.34.2.14.44.21.69.21.28,0,.56-.09.78-.29.38-.35.34-.9-.08-1.2-.75-.54-1.51-1.03-2.27-1.47Z"/>
    <path class="cls-1" d="M134.51,285.86c-.97-.28-1.95-.47-2.91-.55-.58-.06-1.07.29-1.14.76-.06.47.35.89.92.95.8.07,1.62.22,2.45.47.11.04.23.05.34.05.42,0,.83-.22.97-.57.2-.46-.1-.95-.63-1.1Z"/>
    <path class="cls-1" d="M164.48,282.03c-5.36,0-9.72,3.61-9.72,8.05,0,3.07,4.39,9.17,7.45,13.04h0c-.86-.07-1.72-.2-2.57-.36-.54-.11-1.11.16-1.26.63-.14.46.2.92.76,1.04.93.19,1.89.33,2.85.41h.1c.48,0,.87-.28.99-.65.37.32.86.51,1.4.51.65,0,1.24-.27,1.61-.71,3.02-3.77,8.11-10.59,8.11-13.91,0-4.44-4.36-8.05-9.72-8.05ZM164.48,302.88c-3.72-4.64-7.66-10.39-7.66-12.8,0-3.49,3.43-6.35,7.66-6.35s7.66,2.84,7.66,6.35c-.01,2.41-3.94,8.16-7.66,12.8Z"/>
    <path class="cls-1" d="M164.48,286.42c-2.44,0-4.43,1.65-4.43,3.67s1.99,3.67,4.43,3.67,4.43-1.65,4.43-3.67-1.99-3.67-4.43-3.67ZM164.48,292.05c-1.3,0-2.36-.88-2.36-1.95s1.06-1.95,2.36-1.95,2.36.88,2.36,1.95-1.06,1.95-2.36,1.95Z"/>
  </g>
  <g id="_x33_0">
    <g>
      <path d="M106.93,229.08h-11.77v-6.63h0v-5.26c2.98,1.11,6,2.14,7.01,2.14.57,0,2.1,0,6.15-5.28.58-.77.44-1.87-.33-2.45-.77-.58-1.87-.44-2.45.33-1.3,1.69-2.86,3.39-3.55,3.87-1.04-.23-4.03-1.29-6.83-2.34v-15.18c0-.75-.47-1.4-1.17-1.65-11.02-3.88-22.57-6.02-34.16-6.44l-3-14.08h0s-2.89-13.56-2.89-13.56c-.2-.93-1.11-1.53-2.05-1.36l-34.46,6.51c-.83.15-1.43.88-1.43,1.72v14.4h0v29.51c-1.36.76-3.87,1.82-5.25.86-3.4-2.35-8.59-2.93-8.81-2.96-.97-.11-1.82.6-1.93,1.55-.11.96.58,1.82,1.55,1.93.05,0,4.53.51,7.2,2.35,1.06.74,2.23,1.01,3.39,1.01,1.38,0,2.72-.4,3.86-.86v11.86H1.75c-.97,0-1.75.78-1.75,1.75s.78,1.75,1.75,1.75h53.86l12.63,12.5c.34.34.78.5,1.23.5s.9-.18,1.25-.53c.68-.69.68-1.8-.01-2.48l-10.11-9.99h17.19l15.91,12.61c.33.26.7.37,1.09.37.51,0,1.03-.22,1.38-.67.6-.76.48-1.86-.28-2.47l-12.45-9.85h23.49c.97,0,1.75-.78,1.75-1.75s-.78-1.75-1.75-1.75ZM85.47,229.08l.11-1.34c.04-.4.36-.7.69-.7.02,0,.07,0,.13.01.42.05.72.41.69.83l-.09,1.22h-1.52ZM86.59,223.54c-.06,0-.21-.01-.26-.01-2.21,0-4.07,1.73-4.24,3.93l-.13,1.64h-4.65c.19-.26.32-.56.34-.89l.23-2.85c.08-1.03-.23-2.02-.9-2.8-.33-.39-.72-.69-1.16-.92,5.17.5,10.48,1.25,15.86,2.28v5.18h-1.16l.07-.93c.18-2.34-1.57-4.39-4.01-4.6ZM52.92,229.08c.9-.07,1.6-.82,1.61-1.72l.04-2.73c.02-1.83-1.2-3.38-2.87-3.88,2.91-.06,5.95-.07,9.09,0-1.44.65-2.42,2.14-2.35,3.81l.13,2.7c.05.91.78,1.65,1.69,1.67l4.48.14h.06c.47,0,.92-.19,1.25-.53.34-.35.53-.82.5-1.31l-.14-3.05c-.05-1.06-.5-2.05-1.3-2.77-.26-.23-.56-.42-.86-.58,2.83.11,5.71.28,8.67.51-1.46.44-2.59,1.74-2.72,3.37l-.2,2.52c-.07.85.49,1.61,1.3,1.82h-18.37v.02ZM38.65,225.55h-.29v-.83c0-.08.07-.14.14-.15.07,0,.14.08.14.14v.84ZM19.51,220.33v-8.36c6.75-1.74,39.93-9.35,72.15-.02v8.38c-33.1-6.23-63.96-1.5-72.15,0ZM37.78,170.78c.07-.09.23-.26.5-.29.04,0,.07-.01.11-.01.22,0,.37.09.46.15.09.07.26.23.29.5l.19,1.4-1.48.32-.2-1.52c-.04-.26.07-.46.14-.55ZM43.02,173.69l-.4-3.02c-.15-1.13-.74-2.13-1.64-2.83-.48-.36-1.03-.62-1.59-.75l10.2-1.93c-1.82.47-3.21,2.08-3.24,4.06l-.05,3.42c0,.49.19.96.55,1.3.33.32.76.48,1.2.48h.12l4.65-.3.13.58c-4.59.13-9.07.63-13.22,1.33l1.92-.41c.88-.18,1.48-1.03,1.36-1.94ZM51.38,169.31l-.02,1.41-1.52.09.02-1.53c0-.41.34-.75.76-.75h.01c.42,0,.75.35.75.77ZM53.7,178.22l.78,3.69c-.67-1.45-2.12-2.48-3.81-2.5h-.06c-2.33,0-4.23,1.88-4.27,4.21l-.05,3.42c0,.49.19.96.55,1.3.33.32.76.48,1.2.48h.12l5.03-.33c.91-.06,1.62-.81,1.64-1.73l.04-3,1.34,6.32c-12.42-.07-24.85,1.86-36.72,5.76v-10.8c4.04-1.5,18.7-6.52,34.21-6.83ZM51.38,183.67l-.02,1.41-1.52.09.02-1.53c0-.41.34-.75.76-.75h.01c.42.01.75.35.75.77ZM74.38,225.07l-.08.96-.68-.11.07-.91c.01-.19.15-.33.36-.32.12.01.19.07.23.12.06.06.11.14.09.26ZM62.96,225.51l-.97-.04-.05-1.08c-.01-.27.2-.49.46-.5.16,0,.28.06.35.13.07.06.15.16.15.34l.06,1.15ZM50.05,224.58c0-.28.22-.5.5-.5h.01c.28,0,.5.23.49.51v1.11s-1.02.07-1.02.07v-1.19ZM91.66,208.31c-31.5-8.79-63.55-2.07-72.15.05v-8.84l.18-.06c23.25-7.87,48.76-7.84,71.98.05v8.8ZM50.88,165.06c-.07,0-.14-.02-.21-.02-.2,0-.39.04-.58.06l.77-.14.02.11ZM26.12,173.01c.2,0,.36.08.43.14.09.07.27.22.32.49l.23,1.4-1.47.37-.26-1.52c-.05-.27.06-.47.13-.56.07-.09.22-.27.49-.3.05-.01.08-.02.13-.02ZM24.24,169.96c-.63.3-1.19.76-1.6,1.34-.65.93-.91,2.06-.72,3.18l.57,3.38c.08.48.36.91.77,1.17.29.19.62.28.96.28.14,0,.29-.02.43-.06l4.89-1.23c.89-.22,1.45-1.09,1.3-2l-.51-2.99c-.33-1.95-1.95-3.35-3.83-3.52l9.49-1.79c-.36.26-.7.55-.98.91-.69.9-.99,2.02-.84,3.16l.46,3.4c.06.48.33.92.72,1.2.25.18.54.26.83.29-7.46,1.5-13.5,3.46-16.67,4.59v-10.44l4.74-.89ZM19.51,223.9c2.58-.49,8.68-1.53,17.12-2.3-1.06.64-1.78,1.8-1.78,3.13v2.59c.01.47.2.91.53,1.24s.77.5,1.24.5h.01l3.79-.02c.97-.01,1.74-.79,1.74-1.75v-2.58c0-.97-.39-1.89-1.08-2.58-.35-.35-.76-.61-1.2-.79,2.9-.22,6.02-.4,9.33-.51-1.53.55-2.63,1.99-2.65,3.7l-.04,3.09c0,.49.19.96.55,1.3.08.08.19.12.28.18h-16.86l-.07-.88c-.18-2.2-2.05-3.93-4.24-3.93-.09,0-.18,0-.2.01-.05,0-.09,0-.15.01-2.35.2-4.1,2.27-3.9,4.59v.2s-2.41,0-2.41,0v-5.19ZM25.41,228.6c-.04-.41.27-.76.68-.82.04,0,.07,0,.08-.01.39,0,.72.3.75.7l.05.6h-1.52l-.04-.47Z"/>
      <path d="M26.19,197.71c-2.14.18-3.74,2.05-3.56,4.18l.23,2.91c.04.49.28.93.67,1.24.32.25.69.37,1.09.37.09,0,.19-.01.28-.02l4.23-.67c.9-.14,1.54-.96,1.47-1.87l-.21-2.58c-.18-2.14-2.08-3.73-4.2-3.56ZM26.2,202.63l-.08-1.02c-.01-.21.14-.4.35-.41h.04c.2,0,.36.15.39.35l.08.96-.77.12Z"/>
      <path d="M41,196.2c-.86-.74-1.98-1.1-3.11-1.01-2.35.19-4.1,2.24-3.92,4.59l.28,3.42c.04.49.28.93.67,1.24.32.25.69.37,1.09.37.09,0,.19-.01.28-.02l4.98-.79c.9-.14,1.54-.96,1.47-1.87l-.25-3.03c-.09-1.13-.62-2.17-1.5-2.91ZM37.6,201.04l-.13-1.53c-.04-.42.28-.78.7-.82h.06c.23,0,.41.11.49.18.09.07.25.25.27.51l.12,1.41-1.51.25Z"/>
      <path d="M50.67,193.77c-2.34.02-4.29,1.86-4.32,4.21l-.05,3.42c0,.49.19.96.55,1.3.33.32.76.48,1.2.48h.12l5.03-.33c.91-.06,1.62-.81,1.64-1.73l.04-3.04c.05-2.34-1.85-4.28-4.2-4.31ZM51.35,199.46l-1.52.09.02-1.53c0-.41.34-.75.76-.75h.01c.42,0,.76.35.75.77l-.02,1.41Z"/>
      <path d="M83.6,205.8l3.92,1.02c.14.04.29.06.44.06.33,0,.67-.09.95-.28.41-.27.69-.69.78-1.17l.49-2.71c.36-2.05-.99-4.01-3.04-4.37-2.03-.36-4.01.99-4.37,3.04l-.43,2.4c-.19.91.37,1.79,1.26,2.02ZM86.19,202.01c.02-.14.16-.25.3-.21.14.02.23.16.21.3l-.15.84-.5-.13.14-.81Z"/>
      <path d="M71.39,204.21l4.98.79c.09.01.19.02.28.02.39,0,.77-.13,1.09-.37.39-.3.62-.75.67-1.24l.28-3.42c.19-2.35-1.57-4.41-3.92-4.59s-4.41,1.57-4.59,3.92l-.25,3.03c-.08.91.56,1.72,1.46,1.87ZM73.66,199.58c.04-.42.41-.72.82-.7.42.04.72.4.7.82l-.13,1.53-1.51-.23.12-1.41Z"/>
      <path d="M60.29,203.32l5.04.16h.06c.47,0,.92-.19,1.25-.53.34-.35.53-.82.5-1.31l-.15-3.42c-.05-1.13-.55-2.19-1.39-2.96-.84-.77-1.94-1.16-3.07-1.11s-2.19.55-2.96,1.39c-.77.84-1.16,1.93-1.11,3.07l.14,3.04c.04.91.77,1.64,1.69,1.66ZM62.15,197.91c.08-.08.26-.23.53-.25s.46.12.55.2c.08.08.23.26.25.53l.07,1.53-1.52-.05-.07-1.41c-.01-.28.13-.47.2-.55Z"/>
      <path d="M22.18,191.37c.04.49.28.93.67,1.24.32.25.69.37,1.09.37.09,0,.19-.01.28-.02l4.98-.79c.9-.14,1.54-.96,1.47-1.87l-.25-3.03c-.09-1.13-.62-2.17-1.48-2.91s-1.98-1.1-3.11-1.01c-1.13.09-2.16.62-2.91,1.48-.74.86-1.1,1.98-1.01,3.11l.27,3.42ZM25.58,187.12c.08-.09.25-.25.51-.27h.06c.23,0,.41.11.49.18.09.07.25.25.27.51l.12,1.41-1.51.23-.13-1.53c-.01-.26.11-.44.19-.54Z"/>
      <path d="M34.92,190.08c.32.25.69.37,1.09.37.09,0,.19-.01.28-.02l4.98-.79c.9-.14,1.54-.96,1.47-1.87l-.25-3.03c-.09-1.13-.62-2.16-1.48-2.91-.86-.74-1.95-1.1-3.11-1.01-1.13.09-2.16.62-2.91,1.48-.74.86-1.1,1.98-1.01,3.11l.28,3.42c.04.49.27.93.65,1.24ZM37.65,184.58c.07-.09.25-.25.51-.27h.06c.23,0,.41.11.49.18.09.07.25.25.27.51l.12,1.41-1.51.23-.13-1.53c-.01-.26.12-.44.19-.54Z"/>
      <path d="M29.12,211.41c-.78-.67-1.78-.98-2.78-.9-2.1.18-3.67,2.02-3.51,4.11l.22,2.82c.04.49.28.93.67,1.24.32.25.69.37,1.09.37.09,0,.19-.01.28-.02l4.1-.65c.9-.14,1.54-.96,1.47-1.87l-.2-2.5c-.09-1.01-.57-1.93-1.34-2.59ZM26.4,215.27l-.07-.92c-.01-.18.12-.33.29-.34h.02c.16,0,.3.13.32.29l.07.88-.63.09Z"/>
      <path d="M40.69,209.9c-.83-.7-1.89-1.05-2.97-.96-2.23.18-3.9,2.15-3.73,4.38l.23,2.93c.04.47.27.91.63,1.22.32.26.71.4,1.11.4.07,0,.13,0,.2-.01l4.6-.51c.95-.11,1.62-.93,1.55-1.88l-.22-2.79c-.08-1.08-.58-2.07-1.41-2.77ZM37.6,214.18l-.09-1.13c-.02-.3.21-.58.51-.61h.05c.18,0,.3.08.36.14.08.07.18.19.2.39l.09,1.1-1.12.12Z"/>
      <path d="M50.76,207.67c-2.29,0-4.21,1.82-4.24,4.13l-.05,3.32c0,.47.18.92.5,1.25.33.34.78.53,1.25.53h4.91c.97,0,1.75-.78,1.75-1.75v-3.24c.02-2.3-1.82-4.2-4.13-4.23ZM51.38,213.38h-1.38l.02-1.54c0-.37.28-.71.69-.67.37,0,.68.32.67.71v1.5Z"/>
      <path d="M83.71,218.82l4.3.68c.09.01.19.02.28.02.39,0,.77-.13,1.09-.37.39-.3.62-.75.67-1.24l.23-2.96c.08-1.04-.25-2.06-.92-2.86-.68-.79-1.62-1.29-2.68-1.37-1.03-.08-2.06.25-2.86.92-.79.68-1.29,1.64-1.37,2.68l-.21,2.63c-.07.91.56,1.72,1.47,1.87ZM85.94,214.6c.01-.14.08-.23.14-.28s.16-.12.3-.09c.23.02.4.22.39.46l-.08,1.06-.83-.13.08-1.02Z"/>
      <path d="M71.56,217.32l4.81.76c.09.01.19.02.28.02.39,0,.77-.13,1.09-.37.39-.3.62-.75.67-1.24l.27-3.31c.19-2.3-1.53-4.31-3.83-4.5-2.31-.19-4.32,1.53-4.5,3.83l-.23,2.93c-.09.91.55,1.72,1.45,1.87ZM73.81,212.8c.04-.37.36-.65.72-.62.37.04.65.36.62.72l-.12,1.41-1.34-.21.12-1.31Z"/>
      <path d="M60.29,217.12l5.04.16h.06c.47,0,.92-.19,1.25-.53.34-.35.53-.82.5-1.31l-.15-3.42c-.11-2.35-2.1-4.18-4.45-4.07-2.35.11-4.17,2.1-4.07,4.45l.14,3.04c.02.91.76,1.64,1.68,1.67ZM62.68,211.45c.41-.02.77.3.79.72l.07,1.53-1.52-.05-.07-1.41c-.01-.42.32-.77.72-.79Z"/>
      <path d="M100.9,142.65s-.07.01-.11.01c-.19,0-.39.01-.57.02-.09-.2-.19-.39-.28-.57-.09-.19-.19-.36-.3-.54-.16-.29-.36-.57-.54-.79h0s0-.02-.01-.02c-.15-.22-.32-.41-.43-.54-.14-.16-.28-.3-.4-.43h0s-.02-.04-.04-.05c-.08-.08-.16-.16-.25-.23-.02-.02-.06-.06-.08-.08-.12-.11-.25-.21-.35-.3-.16-.14-.34-.28-.51-.4-.2-.15-.41-.29-.55-.37-.19-.12-.39-.23-.58-.35-.33-.15-.74-.36-1.2-.53-.16-.07-.34-.13-.53-.19-.09-.04-.16-.05-.18-.05-.02-.01-.05-.01-.07-.02-.01,0-.02-.01-.02-.01l-.13-.04c-.11-.02-.2-.06-.27-.07-.07-.02-.15-.04-.25-.05-.18-.04-.35-.07-.49-.09-.26-.05-.5-.08-.7-.09h0c-.27-.02-.57-.04-.85-.04-.19,0-.37.01-.57.02-.07,0-.15,0-.22.01-.43.04-.85.11-1.26.19-.09.02-.2.04-.29.06-.41.11-.81.23-1.19.37-.08.04-.18.07-.26.11-.4.16-.77.35-1.15.57-.06.04-.13.07-.19.12-.37.23-.74.48-1.08.76-.05.04-.09.07-.13.11-.35.29-.68.61-.98.93-.04.04-.06.07-.09.11-.3.35-.6.71-.85,1.11-.02.04-.04.06-.06.09-.26.41-.49.83-.69,1.27h-.04c-.16-.01-.35-.02-.53-.02-4.29,0-7.78,3.49-7.78,7.78,0,.69.11,1.39.29,2.08,0,.02.01.06.02.08.01.04.01.07.02.11,0,.02.02.04.02.05.06.16.13.32.22.44,0,0,0,.01.01.01.01.01.02.02.04.05.09.12.19.22.3.32.01.01.02.04.05.05.01.01.02.01.02.01.13.09.27.16.42.21.01,0,.02.01.05.02.02.01.05,0,.06.01.15.05.32.08.48.08h30.83c.16,0,.33-.04.48-.08l.11-.04c.15-.06.29-.13.42-.22.01-.01.02-.01.04-.02s.02-.02.04-.04c.12-.09.22-.2.3-.32.01-.01.02-.02.04-.05,0-.01.01-.01.01-.02.09-.13.15-.27.21-.42.01-.02.02-.05.04-.07.01-.05.02-.09.04-.14v-.02c.2-.69.3-1.4.3-2.1-.02-4.25-3.52-7.75-7.81-7.75ZM77.34,150.44h0c0-2.36,1.92-4.28,4.28-4.28.06,0,.14,0,.25.01.36.02.67.08.95.16.01,0,.02,0,.04.01.01,0,.04.01.05.01.05.01.08.01.13.02.06.01.12.02.19.02h.3s.02,0,.04-.01h.01s.08-.01.13-.02c.06-.01.12-.02.16-.04.01,0,.04-.01.05-.02.04-.01.07-.04.11-.05.06-.02.11-.05.16-.07t.02-.01s.01-.01.02-.02c.04-.02.06-.05.09-.07.05-.04.11-.07.15-.11.01-.01.02-.02.04-.04.02-.02.06-.06.08-.08.05-.05.08-.08.13-.13.01-.01.02-.02.02-.04.02-.04.05-.07.07-.11.04-.05.07-.11.09-.15h.01s.01-.02.01-.04c.02-.04.02-.08.05-.12.01-.05.04-.08.06-.13,0-.01,0-.04.01-.05,0-.01.01-.02.01-.05.74-2.8,3.26-4.77,6.17-4.77.18,0,.36.01.61.04.13.01.26.04.44.06.08.01.16.02.25.05.07.02.14.04.22.05l.28.07c.06.02.11.04.16.05.07.02.14.05.2.07.04.01.06.02.11.04.27.11.53.22.77.35.12.06.23.13.35.21.12.07.23.16.37.26.11.08.21.15.36.28.13.09.25.21.36.33.02.02.05.05.07.07.07.07.14.14.27.29.07.07.13.15.2.23.04.05.07.09.12.15.12.14.21.28.27.4.05.08.14.23.2.3.01.04.04.08.06.12.23.42.41.89.54,1.38.01.04.02.06.04.09v.02s.01.02.01.04c.04.09.07.19.13.28.01.01.01.02.02.04,0,.01.01.01.01.02.02.04.04.06.06.09l.11.14s.01.01.02.02c.06.07.13.14.21.2.02.02.05.04.08.06.06.04.11.08.18.12.07.04.15.07.22.09.02.01.05.02.07.04.16.06.33.08.49.08.01,0,.04.01.05.01.02,0,.05-.01.08-.01.09,0,.19-.01.27-.04.02,0,.06,0,.08-.01.02,0,.04-.01.06-.02.02-.01.05-.01.06-.01.39-.13.82-.2,1.26-.2,2.36,0,4.28,1.92,4.28,4.28h-27.86v.02Z"/>
      <path d="M.32,152.6s.01.07.02.11c0,.01.01.04.02.05.06.16.13.32.22.44h.01s.02.04.04.06c.09.12.19.22.3.32.01.01.02.04.05.05.01.01.02.01.02.01.13.09.27.16.42.21.01,0,.02.01.05.02s.05,0,.06.01c.15.05.32.07.48.08h30.83c.16,0,.33-.04.48-.08.04-.01.07-.02.11-.04.15-.06.29-.13.42-.22.01-.01.02-.01.04-.02s.02-.02.04-.04c.12-.09.21-.2.3-.3.01-.01.02-.02.04-.05,0-.01.01-.01.01-.02.09-.13.15-.27.21-.42.01-.02.02-.05.04-.07.01-.05.02-.09.04-.14h0c.2-.71.3-1.41.3-2.12,0-4.29-3.49-7.78-7.78-7.78-.04,0-.07.01-.11.01-.19,0-.39.01-.57.02-.09-.2-.19-.39-.28-.57s-.19-.36-.3-.54c-.16-.29-.36-.57-.54-.79h0s0-.02-.01-.02c-.15-.22-.32-.41-.43-.54-.14-.16-.28-.3-.4-.43h0s-.02-.04-.04-.05c-.08-.08-.16-.16-.25-.23-.04-.04-.06-.06-.09-.09-.12-.11-.23-.21-.34-.29-.16-.14-.34-.28-.51-.4-.21-.14-.41-.28-.56-.36-.19-.12-.39-.23-.58-.35-.32-.16-.72-.37-1.19-.54-.16-.07-.34-.13-.53-.19-.11-.04-.18-.06-.19-.06-.02-.01-.05-.01-.07-.02-.01,0-.02-.01-.02-.01l-.13-.04c-.11-.02-.2-.06-.27-.07-.05-.01-.13-.04-.23-.05-.19-.05-.36-.08-.5-.09-.26-.05-.51-.08-.7-.09h0c-.27-.02-.57-.04-.85-.04-.19,0-.37.01-.55.02-.08,0-.16,0-.25.01-.42.04-.83.11-1.24.19-.11.02-.22.05-.33.07-.4.09-.78.22-1.16.37-.09.04-.19.07-.29.12-.39.16-.76.35-1.12.56-.07.04-.14.08-.21.13-.37.22-.72.48-1.06.75-.06.04-.11.07-.15.12-.35.29-.68.6-.97.93-.04.04-.06.07-.09.11-.3.35-.58.71-.84,1.1-.02.04-.04.07-.06.09-.26.4-.49.82-.69,1.26,0,0,0,.01-.01.01h-.04c-.16-.01-.35-.02-.53-.02-4.29,0-7.78,3.49-7.78,7.78,0,.69.11,1.39.29,2.07.01.05.02.08.02.11ZM7.78,146.16c.07,0,.13,0,.25.01.36.02.67.08.95.16.01,0,.02,0,.05.01.01,0,.02.01.05.01.05.01.08.01.13.02.06.01.13.02.19.02h.3s.02-.01.05-.01c.05,0,.08-.01.12-.02.06-.01.12-.02.18-.04.01,0,.02-.01.05-.01.04-.01.07-.02.11-.05.06-.02.12-.05.18-.07,0,0,.01,0,.01-.01.01,0,.01-.01.02-.01.04-.02.06-.04.09-.06.06-.04.11-.07.16-.12.01-.01.02-.01.04-.02.02-.02.05-.06.08-.08.05-.05.09-.09.13-.14.01-.01.02-.02.02-.04.02-.04.05-.07.06-.09.04-.05.07-.11.11-.16h0s.01-.02.02-.04c.02-.04.02-.08.05-.12.02-.05.05-.08.06-.13,0-.01,0-.04.01-.05,0-.01.01-.02.01-.04.72-2.8,3.26-4.76,6.17-4.76.18,0,.36.01.61.04.13.01.26.04.44.06.08.01.16.02.25.05.07.02.14.04.22.05l.28.07c.06.02.11.04.16.05.07.02.14.05.2.07.04.01.06.02.11.04.27.11.53.22.77.35.12.06.23.13.35.21.13.08.25.16.37.26.11.07.21.15.35.28.13.09.26.21.36.33.02.02.05.05.07.07.07.07.14.14.27.29.07.07.13.15.2.23.04.05.07.09.12.15.12.14.21.28.27.4.05.08.14.23.2.3.01.04.04.08.06.12.23.42.41.89.54,1.38.01.04.02.06.04.09v.02s.01.02.01.04c.04.09.07.19.13.28.01.01.01.02.02.04,0,.01.01.01.01.02.02.04.04.06.06.09.04.05.07.09.11.14l.02.02c.07.07.13.14.21.2.02.02.05.04.08.06.06.04.11.08.18.12.07.04.15.07.22.09l.07.04c.16.06.33.08.49.08.01,0,.04.01.05.01.02,0,.05-.01.08-.01.09,0,.19-.01.27-.04.02,0,.06,0,.08-.01.02,0,.04-.01.06-.02.02-.01.05-.01.06-.01.39-.13.82-.2,1.26-.2,2.36,0,4.28,1.92,4.28,4.28H3.51c0-2.38,1.92-4.3,4.28-4.3Z"/>
    </g>
  </g>
</svg>