<?xml version="1.0" encoding="UTF-8"?>
<svg id="Bicycle" xmlns="http://www.w3.org/2000/svg" viewBox="0 0 402.6 307.5">
  <defs>
    <style>
      .cls-1 {
        fill: #231f20;
        stroke: #000;
        stroke-miterlimit: 10;
        stroke-width: 6px;
      }

      .cls-2 {
        fill: #0d835a;
      }
    </style>
  </defs>
  <path class="cls-1" d="M336.7,178.8c-19.1,0-36.3,8.6-47.8,22.1l-21.9-15.3,28.4-112.4c11.6,1.4,20.9.8,33.5-10.1,6.6-5.7-.6-15.2-15.2-11.1-14.6,4.1-31,4.9-47.5,5.2-22,.3-12.8,12.7-3.2,12.7,7.9,0,14.6.8,20.5,1.6l-27.1,106.9-50.5-9.2,1.2-6.3-15.7-3.1-1.3,6.5-91.5-16.6,13.6-125.4c3.6-1.9,6.1-5.7,6.1-10,0-6.3-5.1-11.3-11.3-11.3s-11.3,5.1-11.3,11.3c0,3.7,1.8,7,4.6,9.1l-13.7,127.5-8.7,29.2c-3.9-.8-7.9-1.2-12.1-1.2-34.6,0-62.8,28.2-62.8,62.8s28.2,62.8,62.8,62.8,62.8-28.2,62.8-62.8c0-26.3-16.3-48.9-39.2-58.2l4.3-14.3,92.7,16.8-1.6,8.3,15.7,3.1,1.3-6.5c29.1,13.9,39,51.7,39.1,52.3v.1c.1.2.2.5.2.7q0,.1.1.2c.1.3.3.5.4.8,0,.1.1.1.2.2s.1.2.2.2c.1.1.2.2.2.3l.2.2.6.6c.1,0,.1.1.2.1.2.1.4.3.6.4.1,0,.1.1.2.1.3.1.5.3.8.3h.1c.2.1.5.1.7.2h.3c.3,0,.5.1.8.1h27.6c3,31.8,29.9,56.8,62.5,56.8,34.6,0,62.8-28.2,62.8-62.8s-28.3-62.9-62.9-62.9ZM114.5,241.7c0,26.9-21.9,48.8-48.8,48.8s-48.8-21.9-48.8-48.8,21.9-48.8,48.8-48.8c2.7,0,5.4.2,8.1.7l-13.8,46.4c-.9,3.2.9,6.5,4,7.5.6.2,1.1.3,1.7.3,2.6,0,5-1.7,5.7-4.3l13.8-46.4c17.3,7.4,29.3,24.6,29.3,44.6ZM225.4,193.1l26.1,4.7-6.1,23.9c-1.5-3.3-3.4-6.7-5.6-10.3-4.2-7.1-9.1-13.2-14.4-18.3ZM263.8,198.1l18.2,12.7c-4.2,7.5-7,15.9-7.8,24.8h-19.9l9.5-37.5ZM293.5,218.9l24.1,16.8h-29.4c.8-6,2.6-11.7,5.3-16.8ZM336.7,290.5c-24.9,0-45.5-18.7-48.4-42.8h48.4c2.6,0,4.9-1.7,5.7-4.2.8-2.5-.1-5.2-2.3-6.7l-39.7-27.7c8.9-9.9,21.9-16.2,36.3-16.2,26.9,0,48.8,21.9,48.8,48.8s-21.9,48.8-48.8,48.8Z"/>
  <path class="cls-2" d="M183.71,139.2c-4.87,0-8.81-4.84-8.81-10.8,0-1.67.32-3.32.93-4.82l11.25-27.55h-20.99c-4.87.03-8.83-4.77-8.86-10.73,0-1.69.31-3.37.93-4.88l17.63-43.17c2.18-5.33,7.47-7.5,11.83-4.84,4.36,2.66,6.12,9.15,3.95,14.48h0l-11.21,27.55h20.99c4.87-.03,8.83,4.77,8.86,10.73,0,1.69-.31,3.37-.93,4.88l-17.63,43.17c-1.5,3.68-4.58,5.99-7.93,5.97Z"/>
</svg>