<?xml version="1.0" encoding="UTF-8"?>
<svg id="Layer_1" xmlns="http://www.w3.org/2000/svg" viewBox="0 0 95.99 102.9">
  <path d="M83.22,102.9h-24c-1.1,0-2-.9-2-2v-32.48h-18.19v32.48c0,1.1-.9,2-2,2H13.02c-1.1,0-2-.9-2-2v-50.88c0-.52.2-1.02.57-1.4L46.79,12.54c.38-.39.89-.6,1.43-.6h0c.54,0,1.06.22,1.43.61l35,36.08c.36.37.56.87.56,1.39v50.88c0,1.1-.9,2-2,2ZM61.22,98.9h20v-48.07L48.21,16.81,15.02,50.83v48.07h20v-32.48c0-1.1.9-2,2-2h22.19c1.1,0,2,.9,2,2v32.48Z"/>
  <path d="M2,51.79c-.5,0-1-.19-1.39-.56-.8-.77-.82-2.03-.05-2.83L46.61.61C46.98.22,47.5,0,48.04,0c.59,0,1.06.22,1.44.6l45.94,46.99c.77.79.76,2.06-.03,2.83-.79.77-2.06.76-2.83-.03L48.06,4.87,3.44,51.18c-.39.41-.92.61-1.44.61Z"/>
  <path d="M20.36,32.74c-1.1,0-2-.9-2-2V7.93c0-1.1.9-2,2-2s2,.9,2,2v22.81c0,1.1-.9,2-2,2Z"/>
</svg>