<?xml version="1.0" encoding="UTF-8"?>
<svg id="Layer_1" xmlns="http://www.w3.org/2000/svg" viewBox="0 0 24.8 24.93">
  <defs>
    <style>
      .cls-1 {
        fill-rule: evenodd;
      }
    </style>
  </defs>
  <rect x="7.17" y="11.11" width="10.41" height="2.71"/>
  <path class="cls-1" d="M9.76,0h5.24c.23,0,.4.2.4.46v24.02c0,.25-.17.45-.4.45h-5.24c-.22,0-.4-.2-.4-.45V.46c0-.26.18-.46.4-.46h0Z"/>
  <path class="cls-1" d="M8.85,3.89h7.04v1.45h-7.04v-1.45h0ZM8.85,6.51h7.04v1.45h-7.04v-1.45h0ZM8.85,9.12h7.04v1.45h-7.04v-1.45h0ZM8.85,11.74h7.04v1.45h-7.04v-1.45h0ZM8.85,14.37h7.04v1.45h-7.04v-1.45h0ZM8.85,16.99h7.04v1.45h-7.04v-1.45h0ZM8.85,19.6h7.04v1.45h-7.04v-1.45h0ZM8.85,22.22h7.04v1.45h-7.04v-1.45ZM8.85,1.26h7.04v1.45h-7.04v-1.45Z"/>
  <rect x="17.58" y="4.26" width="2.12" height="16.42"/>
  <rect x="19.7" y="2.44" width="1.66" height="20.07"/>
  <polygon class="cls-1" points="3.39 4.26 1.27 4.26 0 8.91 0 16.04 1.27 20.67 1.27 20.67 3.39 20.67 3.39 4.26"/>
  <path class="cls-1" d="M1.41,4.26h-.13l-1.27,4.65v7.13l1.27,4.64h.13c.68-2.3,1.07-5.14,1.07-8.21s-.39-5.9-1.07-8.21h0Z"/>
  <rect x="3.39" y="2.44" width="1.67" height="20.07"/>
  <rect x="5.06" y="4.26" width="2.11" height="16.42"/>
  <rect x="21.36" y="11.11" width="3.44" height="2.71"/>
</svg>