<?xml version="1.0" encoding="UTF-8"?>
<svg id="Layer_1" xmlns="http://www.w3.org/2000/svg" viewBox="0 0 24.4 24.41">
  <path d="M14.86,19.13c-.17-.19-.51-.27-.76-.2-3.38.96-7.02-.74-8.38-4.07-1.46-3.57.25-7.65,3.83-9.11,3.57-1.46,7.66.25,9.11,3.83.62,1.52.66,3.13.23,4.6-.07.25,0,.58.2.75l3.53,3.17c.19.17.38.33.42.35.04.02.25-.08.42-.27.14-.16.27-.35.36-.57l.36-.86c.4-.95.04-2.01-.81-2.36l-.88-.37c-.24-.1-.39-.39-.36-.64.09-.73.09-1.48.02-2.22-.03-.26.13-.54.37-.64.25-.1.55-.23.88-.36.85-.35,1.22-1.4.83-2.35l-.35-.86c-.39-.95-1.39-1.44-2.24-1.1l-.88.36c-.24.1-.55,0-.71-.2-.47-.59-.99-1.12-1.57-1.58-.2-.16-.29-.48-.19-.71.1-.25.23-.55.37-.88.35-.85-.13-1.85-1.08-2.25l-.86-.36c-.95-.4-2.01-.04-2.36.81l-.37.88c-.1.24-.39.39-.64.36-.73-.09-1.47-.1-2.22-.02-.26.03-.54-.13-.64-.37-.1-.26-.25-.61-.41-.99-.32-.79-1.35-1.11-2.31-.72l-.86.35c-.95.39-1.47,1.34-1.14,2.13l.41.99c.1.24,0,.55-.2.71-.59.47-1.12.99-1.58,1.56-.16.2-.48.29-.71.19-.26-.11-.61-.25-.99-.42-.78-.33-1.74.17-2.14,1.12l-.36.86c-.4.95-.09,1.99.7,2.32l.99.42c.24.1.39.39.36.64-.09.73-.09,1.48-.01,2.22.03.26-.13.54-.37.64-.26.1-.61.25-.99.41-.79.32-1.11,1.35-.72,2.31l.35.86c.39.95,1.34,1.46,2.13,1.14l.99-.41c.24-.1.55,0,.71.2.47.59.99,1.12,1.56,1.58.2.16.29.48.19.71-.11.26-.25.61-.42.99-.33.78.17,1.74,1.12,2.14l.86.36c.95.4,1.99.09,2.32-.7l.42-.99c.1-.24.39-.39.64-.36.73.09,1.48.09,2.22.01.26-.03.54.13.64.37.1.26.25.61.41.99.32.79,1.35,1.11,2.31.72l.86-.35c.25-.1.46-.24.64-.4.19-.17.29-.38.27-.42-.02-.03-.03-.05-.04-.07l-3.49-3.87Z"/>
  <path d="M16.61,13.64c.73-2.25-.83-5.73-4.91-4.71-.25.06-.3.27-.12.46l1.63,1.63c.55.55.55,1.43,0,1.98l-.25.25c-.55.55-1.43.55-1.98,0l-1.63-1.63c-.18-.18-.39-.13-.46.12-1.02,4.08,2.46,5.64,4.71,4.91.24-.08.57-.02.74.17l4.88,5.43c.17.19.33.56.41.8.08.23.22.45.4.63.8.8,2.25.65,3.25-.35.99-.99,1.15-2.45.35-3.25-.18-.18-.4-.31-.63-.4-.24-.09-.61-.24-.8-.41l-5.43-4.88c-.19-.17-.25-.5-.17-.74ZM22.26,22.29c-.36.36-.96.35-1.34-.03-.38-.38-.39-.98-.03-1.34s.96-.35,1.34.03c.38.38.39.98.03,1.34Z"/>
</svg>