<?xml version="1.0" encoding="UTF-8"?>
<svg id="Livello_2" xmlns="http://www.w3.org/2000/svg" xmlns:xlink="http://www.w3.org/1999/xlink" viewBox="0 0 914.34 515.34">
  <defs>
    <style>
      .cls-1 {
        font-family: MicrosoftSansSerif, 'Microsoft Sans Serif';
        font-size: 623.37px;
      }

      .cls-2 {
        fill: url(#Sfumatura_senza_nome_2);
      }

      .cls-3 {
        stroke-width: 20.51px;
      }

      .cls-3, .cls-4, .cls-5, .cls-6, .cls-7, .cls-8, .cls-9 {
        fill: none;
      }

      .cls-3, .cls-5, .cls-6, .cls-7, .cls-8, .cls-9 {
        stroke-miterlimit: 10;
      }

      .cls-3, .cls-5, .cls-6, .cls-8, .cls-9 {
        stroke: #000;
      }

      .cls-10 {
        fill: #303c42;
      }

      .cls-11 {
        font-family: SitkaTextItalic, Sitka;
        font-size: 396.35px;
        font-variation-settings: 'opsz' 11, 'wght' 400;
      }

      .cls-11, .cls-12 {
        isolation: isolate;
      }

      .cls-5 {
        stroke-width: 13.87px;
      }

      .cls-13 {
        fill: #009245;
      }

      .cls-14 {
        fill: url(#Sfumatura_senza_nome);
      }

      .cls-6 {
        stroke-width: 18.32px;
      }

      .cls-7 {
        stroke: #009245;
        stroke-width: 15.78px;
      }

      .cls-8 {
        stroke-width: 14px;
      }

      .cls-9 {
        stroke-width: 18.21px;
      }

      .cls-15 {
        fill: #8acc00;
      }
    </style>
    <linearGradient id="Sfumatura_senza_nome" data-name="Sfumatura senza nome" x1="-184.25" y1="-1095.47" x2="1.98" y2="-1008.62" gradientTransform="translate(219.04 1402.45)" gradientUnits="userSpaceOnUse">
      <stop offset="0" stop-color="#fff" stop-opacity=".2"/>
      <stop offset="1" stop-color="#fff" stop-opacity="0"/>
    </linearGradient>
    <linearGradient id="Sfumatura_senza_nome_2" data-name="Sfumatura senza nome 2" x1="437.5" y1="-1094.46" x2="623.74" y2="-1007.62" gradientTransform="translate(219.04 1402.45)" gradientUnits="userSpaceOnUse">
      <stop offset="0" stop-color="#fff" stop-opacity=".2"/>
      <stop offset="1" stop-color="#fff" stop-opacity="0"/>
    </linearGradient>
  </defs>
  <line class="cls-3" x1="662.82" y1="31.53" x2="737.82" y2="333.53"/>
  <g>
    <g>
      <path d="M320.32,191.59v14.24c0,3.56-1.28,6.45-2.85,6.45h-21.3c-1.57,0-2.85-2.89-2.85-6.45v-14.24c0-3.56,1.28-6.45,2.85-6.45h21.3c1.57,0,2.85,2.89,2.85,6.45Z"/>
      <path d="M331.32,216.46v238.11c0,7.3-2.62,13.23-5.85,13.23h-37.3c-3.23,0-5.85-5.92-5.85-13.23v-238.11c0-7.3,2.62-13.23,5.85-13.23h37.3c3.23,0,5.85,5.92,5.85,13.23Z"/>
      <path class="cls-13" d="M324.39,455.38h-34.87c-.8,0-1.45-1.47-1.45-3.28v-232.58c0-1.81.65-3.28,1.45-3.28h34.85c.8,0,1.45,1.47,1.45,3.28v232.57c0,1.87-.65,3.28-1.43,3.28h0Z"/>
    </g>
    <polygon class="cls-15" points="313.98 274.19 294.66 338.35 304.76 338.35 299.76 385.9 319.06 322.52 308.98 322.52 313.98 274.19"/>
  </g>
  <g class="cls-12">
    <text class="cls-11" transform="translate(347.32 463.33) scale(.51 1)"><tspan x="0" y="0">ER</tspan></text>
  </g>
  <path class="cls-9" d="M726.32,197.68c14.28-2.74,47.92-7.06,85.21,9.21,54.59,23.81,76.26,73.97,80.79,85.15"/>
  <path class="cls-14" d="M127.91,247.66c-56.66,0-102.75,46.09-102.75,102.75s46.09,102.75,102.75,102.75,102.75-46.09,102.75-102.75-46.09-102.75-102.75-102.75h0ZM34.17,359.36c-.28-2.95-.45-5.93-.45-8.96s.17-6.01.45-8.96l49.36-4.33,9.98,13.81-8.78,12.83-50.56-4.4h0ZM79.21,371.84l-25.18,36.8c-9.19-11.64-15.71-25.46-18.59-40.58l43.77,3.78ZM35.44,332.75c2.72-14.27,8.7-27.35,17.08-38.56l25.2,34.89-42.28,3.68h0ZM192.82,282.33c2.51,2.4,4.93,4.9,7.16,7.56l-29.95,38.51-18.48-1.6-1.33-15.33,42.6-29.15h0ZM149.38,301.69l-3.8-43.75c15.12,2.88,28.94,9.4,40.58,18.59l-36.77,25.16h-.01ZM205.36,296.94c7.33,10.58,12.52,22.71,15.02,35.81l-40.17-3.47,25.15-32.34h0ZM140.75,350.41c0,7.08-5.76,12.84-12.84,12.84s-12.84-5.76-12.84-12.84,5.76-12.84,12.84-12.84,12.84,5.76,12.84,12.84ZM152.36,336.03l-.05-.61,11.5,1-5.73,7.37-5.71-7.75h-.01ZM142.95,326.06l-.7-.06-6.45-4.66,6.35-4.35.79,9.06h.01ZM113.97,325.92l-1.05.09.87-10,7.13,5.15-6.95,4.76ZM103.48,336.37l-4.83,7.06-5.18-7.18,10.1-.88-.09,1h0ZM98.84,358.31l4.6,6.37.06.71-8.98-.78,4.31-6.3h.01ZM113.42,374.79l7.85,5.79-7.4,5.75-1.01-11.59.56.05h0ZM142.62,374.83l.28-.02-.9,10.41-6.53-4.81,7.16-5.57h-.01ZM152.27,365.2l5.62-7.23,4.83,6.56-10.48.92.02-.25h.01ZM163.35,350.95l10.61-13.65,47.68,4.15c.28,2.95.45,5.93.45,8.96s-.17,6.01-.45,8.96l-48.93,4.29-9.36-12.71ZM220.38,368.07c-2.66,13.95-8.44,26.78-16.53,37.83l-25.2-34.2,41.73-3.63h0ZM136.87,256.67l4.43,50.54-12.87,8.81-13.78-9.95,4.29-49.4c2.95-.28,5.94-.45,8.96-.45s6.01.17,8.96.45h.01ZM106.59,300.25l-34.92-25.22c11.21-8.39,24.3-14.37,38.57-17.09l-3.65,42.31h0ZM64.84,280.65l40.9,29.54-1.43,16.56-16.65,1.45-29.51-40.86c2.12-2.34,4.35-4.57,6.69-6.69ZM59.84,415.32l29.17-42.64,15.25,1.32,1.61,18.56-38.47,29.92c-2.66-2.24-5.16-4.65-7.56-7.16ZM106.75,402.72l3.49,40.15c-13.1-2.5-25.23-7.7-35.81-15.02l32.32-25.13ZM118.94,444.14l-4.17-47.65,13.67-10.63,12.69,9.35-4.25,48.93c-2.95.28-5.94.45-8.96.45s-6.01-.17-8.96-.45h-.02ZM149.17,401.14l34.22,25.21c-11.05,8.09-23.87,13.87-37.82,16.53l3.6-41.74h0ZM190.28,420.79l-40.25-29.66,1.47-17.08,17.14-1.49,29.64,40.22c-2.51,2.83-5.18,5.5-8.01,8.01h.01Z"/>
  <g>
    <g>
      <path class="cls-10" d="M749.66,248.66c-56.66,0-102.75,46.09-102.75,102.75s46.09,102.75,102.75,102.75,102.75-46.09,102.75-102.75-46.09-102.75-102.75-102.75ZM655.92,360.37c-.28-2.95-.45-5.93-.45-8.96s.17-6.01.45-8.96l49.36-4.33,9.98,13.81-8.78,12.83-50.56-4.4h0ZM700.96,372.85l-25.18,36.8c-9.19-11.64-15.71-25.46-18.59-40.58l43.77,3.78ZM657.19,333.75c2.72-14.27,8.7-27.35,17.08-38.56l25.2,34.89-42.28,3.68h0ZM814.57,283.34c2.51,2.4,4.93,4.9,7.16,7.56l-29.95,38.51-18.48-1.6-1.33-15.33,42.6-29.15h0ZM771.12,302.69l-3.8-43.75c15.12,2.88,28.94,9.4,40.58,18.59l-36.77,25.16h0ZM827.11,297.94c7.33,10.58,12.52,22.71,15.02,35.81l-40.17-3.47,25.15-32.34h0ZM762.5,351.41c0,7.08-5.76,12.84-12.84,12.84s-12.84-5.76-12.84-12.84,5.76-12.84,12.84-12.84,12.84,5.76,12.84,12.84ZM774.11,337.04l-.05-.61,11.5,1-5.73,7.37-5.71-7.75h-.01ZM764.7,327.07l-.7-.06-6.45-4.66,6.35-4.35.79,9.06h0ZM735.72,326.92l-1.05.09.87-10,7.13,5.15-6.95,4.76ZM725.23,337.37l-4.83,7.06-5.18-7.18,10.1-.88-.09,1ZM720.59,359.32l4.6,6.37.06.71-8.98-.78,4.31-6.3h0ZM735.17,375.8l7.85,5.79-7.4,5.75-1.01-11.59.56.05h0ZM764.37,375.83l.28-.02-.9,10.41-6.53-4.81,7.16-5.57h-.01ZM774.02,366.2l5.62-7.23,4.83,6.56-10.48.92.02-.25h.01ZM785.1,351.95l10.61-13.65,47.68,4.15c.28,2.95.45,5.93.45,8.96s-.17,6.01-.45,8.96l-48.93,4.29-9.36-12.71ZM842.13,369.07c-2.66,13.95-8.44,26.78-16.53,37.83l-25.2-34.2,41.73-3.63ZM758.62,257.68l4.43,50.54-12.87,8.81-13.78-9.95,4.29-49.4c2.95-.28,5.94-.45,8.96-.45s6.01.17,8.96.45h.01ZM728.34,301.25l-34.92-25.22c11.21-8.39,24.3-14.37,38.57-17.09l-3.65,42.31h0ZM686.59,281.66l40.9,29.54-1.43,16.56-16.65,1.45-29.51-40.86c2.12-2.34,4.35-4.57,6.69-6.69h0ZM681.58,416.33l29.17-42.64,15.25,1.32,1.61,18.56-38.47,29.92c-2.66-2.24-5.16-4.65-7.56-7.16h0ZM728.5,403.73l3.49,40.15c-13.1-2.5-25.23-7.7-35.81-15.02l32.32-25.13h0ZM740.69,445.14l-4.17-47.65,13.67-10.63,12.69,9.35-4.25,48.93c-2.95.28-5.94.45-8.96.45s-6.01-.17-8.96-.45h-.02ZM770.92,402.14l34.22,25.21c-11.05,8.09-23.87,13.87-37.82,16.53l3.6-41.74h0ZM812.03,421.8l-40.25-29.66,1.47-17.08,17.14-1.49,29.64,40.22c-2.51,2.83-5.18,5.5-8.01,8.01h.01Z"/>
      <path class="cls-2" d="M749.66,248.66c-56.66,0-102.75,46.09-102.75,102.75s46.09,102.75,102.75,102.75,102.75-46.09,102.75-102.75-46.09-102.75-102.75-102.75ZM655.92,360.37c-.28-2.95-.45-5.93-.45-8.96s.17-6.01.45-8.96l49.36-4.33,9.98,13.81-8.78,12.83-50.56-4.4h0ZM700.96,372.85l-25.18,36.8c-9.19-11.64-15.71-25.46-18.59-40.58l43.77,3.78ZM657.19,333.75c2.72-14.27,8.7-27.35,17.08-38.56l25.2,34.89-42.28,3.68h0ZM814.57,283.34c2.51,2.4,4.93,4.9,7.16,7.56l-29.95,38.51-18.48-1.6-1.33-15.33,42.6-29.15h0ZM771.12,302.69l-3.8-43.75c15.12,2.88,28.94,9.4,40.58,18.59l-36.77,25.16h0ZM827.11,297.94c7.33,10.58,12.52,22.71,15.02,35.81l-40.17-3.47,25.15-32.34h0ZM762.5,351.41c0,7.08-5.76,12.84-12.84,12.84s-12.84-5.76-12.84-12.84,5.76-12.84,12.84-12.84,12.84,5.76,12.84,12.84ZM774.11,337.04l-.05-.61,11.5,1-5.73,7.37-5.71-7.75h-.01ZM764.7,327.07l-.7-.06-6.45-4.66,6.35-4.35.79,9.06h0ZM735.72,326.92l-1.05.09.87-10,7.13,5.15-6.95,4.76ZM725.23,337.37l-4.83,7.06-5.18-7.18,10.1-.88-.09,1ZM720.59,359.32l4.6,6.37.06.71-8.98-.78,4.31-6.3h0ZM735.17,375.8l7.85,5.79-7.4,5.75-1.01-11.59.56.05h0ZM764.37,375.83l.28-.02-.9,10.41-6.53-4.81,7.16-5.57h-.01ZM774.02,366.2l5.62-7.23,4.83,6.56-10.48.92.02-.25h.01ZM785.1,351.95l10.61-13.65,47.68,4.15c.28,2.95.45,5.93.45,8.96s-.17,6.01-.45,8.96l-48.93,4.29-9.36-12.71ZM842.13,369.07c-2.66,13.95-8.44,26.78-16.53,37.83l-25.2-34.2,41.73-3.63ZM758.62,257.68l4.43,50.54-12.87,8.81-13.78-9.95,4.29-49.4c2.95-.28,5.94-.45,8.96-.45s6.01.17,8.96.45h.01ZM728.34,301.25l-34.92-25.22c11.21-8.39,24.3-14.37,38.57-17.09l-3.65,42.31h0ZM686.59,281.66l40.9,29.54-1.43,16.56-16.65,1.45-29.51-40.86c2.12-2.34,4.35-4.57,6.69-6.69h0ZM681.58,416.33l29.17-42.64,15.25,1.32,1.61,18.56-38.47,29.92c-2.66-2.24-5.16-4.65-7.56-7.16h0ZM728.5,403.73l3.49,40.15c-13.1-2.5-25.23-7.7-35.81-15.02l32.32-25.13h0ZM740.69,445.14l-4.17-47.65,13.67-10.63,12.69,9.35-4.25,48.93c-2.95.28-5.94.45-8.96.45s-6.01-.17-8.96-.45h-.02ZM770.92,402.14l34.22,25.21c-11.05,8.09-23.87,13.87-37.82,16.53l3.6-41.74h0ZM812.03,421.8l-40.25-29.66,1.47-17.08,17.14-1.49,29.64,40.22c-2.51,2.83-5.18,5.5-8.01,8.01h.01Z"/>
    </g>
    <g>
      <circle class="cls-5" cx="749.39" cy="351.89" r="130"/>
      <ellipse class="cls-7" cx="749.6" cy="351.46" rx="116.78" ry="115.7"/>
      <circle class="cls-8" cx="749.39" cy="351.03" r="103.13"/>
    </g>
  </g>
  <line class="cls-3" x1="582.32" y1="24.53" x2="672.32" y2="23.53"/>
  <line class="cls-4" x1="-14.68" y1="264.03" x2="57.32" y2="324.03"/>
  <text class="cls-1" transform="translate(-12.3 482.96) scale(.7 1)"><tspan x="0" y="0">B</tspan></text>
  <path class="cls-6" d="M184.91,275.64c10.69-19.94,61.31-107.79,200.95-156.59,131.72-46.03,254.61-26.55,285.89-20.89"/>
</svg>