<?xml version="1.0" encoding="UTF-8"?>
<svg id="Solid" xmlns="http://www.w3.org/2000/svg" viewBox="0 0 262.89 251.89">
  <defs>
    <style>
      .cls-1 {
        fill: #1d1d1b;
      }

      .cls-2 {
        fill: none;
        stroke: #1d1d1b;
        stroke-miterlimit: 10;
        stroke-width: 3.37px;
      }
    </style>
  </defs>
  <g>
    <path class="cls-1" d="M159.32,158.34l1.41,5.24c.22.86.98,1.63,1.85,1.86l5.26,1.41.63.08c.71,0,1.42-.29,1.89-.76l3.85-3.85c.63-.63.9-1.66.68-2.52l-1.41-5.26c-.23-.86-.99-1.62-1.84-1.84l-5.26-1.41-.63-.07c-.71,0-1.42.28-1.89.75l-3.85,3.85c-.63.63-.9,1.66-.67,2.53ZM165.83,154.34l4.73,1.27,1.27,4.73-3.46,3.46-4.73-1.26-1.27-4.73,3.46-3.47Z"/>
    <path class="cls-1" d="M176.88,149.3c-2.83-2.82-6.72-4.28-10.67-4.02l-26.8-26.8-2.18,2.18,27.84,27.84.75-.09c3.27-.38,6.55.73,8.89,3.06,4.19,4.19,4.19,11.01,0,15.19-4.07,4.06-11.15,4.06-15.21,0-2.34-2.34-3.46-5.58-3.06-8.89l.09-.74-27.84-27.85-2.18,2.18,26.8,26.8c-.26,3.98,1.18,7.84,4.02,10.67,2.61,2.61,6.09,4.05,9.78,4.05s7.17-1.44,9.78-4.05c5.39-5.39,5.39-14.17,0-19.55Z"/>
    <path class="cls-1" d="M105.01,119.46c2.79,0,5.5-.51,8.08-1.5l7.67,7.68,2.18-2.18-9.15-9.15-.96.43c-2.47,1.09-5.1,1.64-7.82,1.64-5.16,0-10.01-2.01-13.66-5.65-5.31-5.31-7.05-13.15-4.54-20.18l11.32,11.32c1.13,1.14,3.13,1.14,4.26,0l7.5-7.51c1.17-1.17,1.17-3.08,0-4.25l-11.32-11.32c2.09-.75,4.28-1.12,6.51-1.12,5.17,0,10.02,2.01,13.67,5.66,5.68,5.68,7.25,14.11,4.02,21.49l-.42.97,9.14,9.14,2.18-2.18-7.67-7.67c3.2-8.29,1.27-17.58-5.06-23.92-4.23-4.23-9.86-6.56-15.85-6.56-2.91,0-5.75.55-8.43,1.64-.68.27-1.48.91-1.68,1.87-.1.45-.12,1.34.75,2.2l11.99,11.89-7.39,7.5-11.99-11.99c-.66-.65-1.32-.79-1.77-.79-1.19,0-1.99.92-2.3,1.71-3.39,8.37-1.45,17.91,4.93,24.28,4.23,4.23,9.86,6.56,15.84,6.56Z"/>
    <rect class="cls-1" x="142.79" y="119.71" width="5.53" height="35.65" transform="translate(-54.62 143.21) rotate(-45)"/>
    <rect class="cls-1" x="121.46" y="111.98" width="5.53" height="8.45" transform="translate(-45.78 121.95) rotate(-45.02)"/>
    <path class="cls-1" d="M122.48,131.86l38.04-38.05c.1.01.19.06.3.06l3.76-.15c.97-.04,2.18-.57,2.86-1.25l6.43-6.43c.49-.49.77-1.15.77-1.85s-.27-1.36-.77-1.85l-4.05-4.05c-.99-.99-2.71-.99-3.7,0l-6.43,6.43c-.69.69-1.21,1.89-1.25,2.86l-.15,3.64c0,.14.05.26.07.4l-38.05,38.05-7.19-7.18c-.36-.36-.95-.36-1.31,0l-3.72,3.71c-.36.36-.43,1-.17,1.44l.86,1.39c.26.44.19,1.08-.17,1.44l-3.98,3.98c-.36.37-1.02.48-1.49.26l-1.57-.76c-.46-.22-1.13-.1-1.48.25l-18.56,18.56c-3.02,3.01-3.02,7.9,0,10.92l6.94,6.94c3.01,3.02,7.9,3.02,10.92,0l18.56-18.55c.36-.36.47-1.03.25-1.49l-.75-1.57c-.22-.46-.1-1.13.25-1.48l3.98-3.98c.36-.36,1-.44,1.44-.17l1.39.86c.44.26,1.08.19,1.44-.17l3.72-3.72c.36-.36.36-.94,0-1.31l-7.19-7.19ZM161.52,87.72c0-.2.21-.67.35-.81l6.11-6.11,3.39,3.39-6.11,6.11c-.15.14-.61.34-.81.35l-3.06.12.13-3.05ZM86.52,158.5l-2.18-2.18,17.21-17.22,2.18,2.18-17.21,17.22ZM89,160.99l17.21-17.21,2.18,2.18-17.21,17.21-2.18-2.18ZM95.84,167.83l-2.18-2.19,17.22-17.21,2.18,2.18-17.22,17.22Z"/>
  </g>
  <path class="cls-2" d="M131.91,241.14c-1.08,0-2.16-.38-3.02-1.13-3.74-3.26-91.86-80.51-114.28-140.41-3.45-7.97-5.19-16.44-5.19-25.18,0-35.04,28.51-63.55,63.55-63.55,26.73,0,49.66,16.59,59.04,40.01,9.48-23.19,32.3-39.57,58.86-39.57,35.04,0,63.55,28.51,63.55,63.55,0,1.26-.05,2.52-.12,3.77-.2,56.79-114.48,157.13-119.35,161.38-.87.76-1.95,1.13-3.03,1.13ZM72.96,20.09c-29.96,0-54.34,24.38-54.34,54.33,0,7.51,1.51,14.78,4.48,21.62.03.07.06.15.09.23,19.28,51.69,92.84,119.81,108.71,134.1,18.31-16.47,113.17-104.11,113.17-151.88,0-.1,0-.19,0-.29.07-1.1.11-2.22.11-3.34,0-29.96-24.38-54.33-54.34-54.33s-54.34,24.37-54.34,54.33c0,.27.01.54.02.81l.02.69c.03,1.24-.45,2.44-1.32,3.32-1.74,1.78-4.91,1.77-6.64-.01-.87-.89-1.38-2.1-1.34-3.34v-.42c.03-.49.05-.98.05-1.48,0-29.96-24.38-54.34-54.34-54.34Z"/>
</svg>