<?xml version="1.0" encoding="UTF-8"?>
<svg id="Solid" xmlns="http://www.w3.org/2000/svg" viewBox="0 0 262.89 251.89">
  <defs>
    <style>
      .cls-1 {
        fill: #1d1d1b;
      }
    </style>
  </defs>
  <path class="cls-1" d="M68.04,110.36c-2.3,19.95,5,39.81,19.68,53.52,8.57,7.89,13.52,18.97,13.68,30.62v12.97c0,8.91,6.26,16.58,14.99,18.36v.37c0,8.28,6.71,14.99,14.99,14.99s14.99-6.71,14.99-14.99v-.37c8.73-1.78,14.99-9.46,14.99-18.36v-12.97c.15-11.76,5.17-22.93,13.87-30.84,12.73-11.96,19.92-28.67,19.86-46.13.15-35.19-28.26-63.83-63.45-63.97-32.62-.13-60.07,24.39-63.6,56.81ZM131.38,233.7c-4.14,0-7.5-3.36-7.5-7.5h14.99c0,4.14-3.36,7.5-7.5,7.5ZM153.86,207.47c0,6.21-5.03,11.24-11.24,11.24h-22.49c-6.21,0-11.24-5.03-11.24-11.24v-7.5h44.97v7.5ZM135.13,146.42c2.85-3.97,5.51-8.13,8.06-12.33,4.1-6.61,7.52-13.61,10.19-20.91-6.02,5-11.5,10.6-16.38,16.71-3.22,4.01-6.33,8.09-9.22,12.33-.66-2.67-1.01-5.42-1.05-8.17.37-.91.37-1.94,0-2.85,1.2-19.18,17.4-33.96,36.61-33.39,7.33,18.34-1.6,39.14-19.94,46.47-2.78,1.11-5.69,1.87-8.66,2.25l.37-.11ZM120.55,123.93l-10.23-10.42,9.22,19.34c-.07,4.14.44,8.26,1.54,12.25-7.15-2.44-13.34-7.1-17.65-13.3-6.87-9.88-8.36-22.53-3.97-33.73,10.32-.24,20.24,3.97,27.25,11.54-2.98,4.37-5.12,9.25-6.33,14.39l.19-.07ZM124.93,61.68c30.86-3.42,58.65,18.81,62.07,49.67,1.94,17.45-4.39,34.8-17.1,46.91-9.61,8.87-15.37,21.15-16.04,34.22h-18.74v-38.49c23.77-2.72,40.84-24.19,38.12-47.96-.53-4.65-1.81-9.18-3.8-13.42-.57-1.21-1.74-2.02-3.07-2.14-13.08-1.07-25.95,3.83-35,13.34-9.07-9.31-21.83-14.07-34.78-12.97-1.33.11-2.5.93-3.07,2.14-6.52,14.05-5.1,30.5,3.75,43.21,6.83,9.83,17.45,16.36,29.31,18.03h1.05v38.26h-18.74c-.69-13-6.42-25.22-15.97-34.07-22.59-21.3-23.63-56.88-2.33-79.47,9.06-9.61,21.22-15.72,34.33-17.26Z"/>
  <path class="cls-1" d="M131.38,50.06c2.07,0,3.75-1.68,3.75-3.75v-29.98c0-2.07-1.68-3.75-3.75-3.75s-3.75,1.68-3.75,3.75v29.98c0,2.07,1.68,3.75,3.75,3.75Z"/>
  <path class="cls-1" d="M92.52,57.56c1.11,1.75,3.43,2.26,5.17,1.15,1.64-1.04,2.21-3.17,1.31-4.9l-14.99-25.97c-1.11-1.75-3.43-2.26-5.17-1.15-1.64,1.04-2.21,3.17-1.31,4.9l14.99,25.97Z"/>
  <path class="cls-1" d="M41.88,70.19l25.97,14.99c1.83.96,4.1.25,5.06-1.58.9-1.73.33-3.86-1.31-4.9l-25.97-14.99c-1.83-.96-4.1-.25-5.06,1.58-.9,1.73-.33,3.86,1.31,4.9Z"/>
  <path class="cls-1" d="M63.92,117.52c0-2.07-1.68-3.75-3.75-3.75h-29.98c-2.07,0-3.75,1.68-3.75,3.75s1.68,3.75,3.75,3.75h29.98c2.07,0,3.75-1.68,3.75-3.75Z"/>
  <path class="cls-1" d="M72.95,151.25c-.99-1.82-3.26-2.49-5.08-1.5-.07.04-.14.08-.2.12l-25.97,14.99c-1.75,1.11-2.26,3.43-1.15,5.17,1.04,1.64,3.17,2.21,4.9,1.31l25.97-14.99c1.83-.97,2.52-3.24,1.55-5.07,0,0-.01-.02-.02-.03Z"/>
  <path class="cls-1" d="M220.87,164.86l-25.97-14.99c-1.83-.96-4.1-.25-5.06,1.58-.9,1.73-.33,3.86,1.31,4.9l25.97,14.99c1.83.96,4.1.25,5.06-1.58.9-1.73.33-3.86-1.31-4.9Z"/>
  <path class="cls-1" d="M232.57,113.77h-29.98c-2.07,0-3.75,1.68-3.75,3.75s1.68,3.75,3.75,3.75h29.98c2.07,0,3.75-1.68,3.75-3.75s-1.68-3.75-3.75-3.75Z"/>
  <path class="cls-1" d="M193.07,85.67c.66,0,1.3-.16,1.87-.49l25.97-14.99c1.83-.96,2.54-3.22,1.58-5.06-.96-1.83-3.22-2.54-5.06-1.58-.09.05-.18.1-.27.16l-25.97,14.99c-1.8,1.02-2.43,3.31-1.41,5.11.67,1.18,1.93,1.91,3.29,1.9v-.04Z"/>
  <path class="cls-1" d="M165.11,59.1c1.81,1,4.09.35,5.09-1.46.01-.02.03-.05.04-.07l14.99-25.97c.96-1.83.25-4.1-1.58-5.06-1.73-.9-3.86-.33-4.9,1.31l-14.99,25.97c-1.11,1.75-.59,4.06,1.16,5.17.06.04.13.08.19.11Z"/>
</svg>