<?xml version="1.0" encoding="UTF-8"?>
<svg id="Livello_2" xmlns="http://www.w3.org/2000/svg" xmlns:xlink="http://www.w3.org/1999/xlink" viewBox="0 0 1231.55 967.09">
  <defs>
    <style>
      .cls-1 {
        stroke-width: 14px;
      }

      .cls-1, .cls-2, .cls-3, .cls-4, .cls-5, .cls-6, .cls-7, .cls-8, .cls-9, .cls-10 {
        fill: none;
        stroke-miterlimit: 10;
      }

      .cls-1, .cls-2, .cls-3, .cls-5, .cls-7, .cls-8, .cls-9, .cls-10 {
        stroke: #000;
      }

      .cls-2 {
        stroke-width: 22.25px;
      }

      .cls-11 {
        fill: url(#Sfumatura_senza_nome_53-2);
      }

      .cls-3 {
        stroke-width: 15px;
      }

      .cls-12 {
        font-family: AcuminConcept-Italic, 'Acumin Variable Concept';
        font-size: 384.66px;
        font-style: italic;
        font-variation-settings: 'wght' 400, 'wdth' 100, 'slnt' 12;
      }

      .cls-13 {
        letter-spacing: 0em;
      }

      .cls-14 {
        fill: #303c42;
      }

      .cls-4 {
        stroke-width: 15.78px;
      }

      .cls-4, .cls-6 {
        stroke: #009245;
      }

      .cls-5 {
        stroke-width: 18.21px;
      }

      .cls-15 {
        fill: #009245;
      }

      .cls-16 {
        fill: #13252d;
      }

      .cls-6 {
        stroke-width: 17.14px;
      }

      .cls-7 {
        stroke-width: 13.87px;
      }

      .cls-8 {
        stroke-width: 16.31px;
      }

      .cls-9 {
        stroke-width: 20.51px;
      }

      .cls-17 {
        letter-spacing: 0em;
      }

      .cls-10 {
        stroke-width: 20.45px;
      }

      .cls-18 {
        fill: url(#Sfumatura_senza_nome_53);
      }

      .cls-19 {
        fill: #8acc00;
      }
    </style>
    <linearGradient id="Sfumatura_senza_nome_53" data-name="Sfumatura senza nome 53" x1="143.22" y1="1758.25" x2="329.46" y2="1671.4" gradientTransform="translate(219.04 2244.34) scale(1 -1)" gradientUnits="userSpaceOnUse">
      <stop offset="0" stop-color="#fff" stop-opacity=".2"/>
      <stop offset="1" stop-color="#fff" stop-opacity="0"/>
    </linearGradient>
    <linearGradient id="Sfumatura_senza_nome_53-2" data-name="Sfumatura senza nome 53" x1="768.29" y1="1757.38" x2="954.52" y2="1670.54" xlink:href="#Sfumatura_senza_nome_53"/>
  </defs>
  <path class="cls-2" d="M460.93,505.73c11.96-26.17,68.64-141.49,225.59-205.96,148.05-60.81,286.37-35.74,321.59-28.44"/>
  <line class="cls-9" x1="993.61" y1="210.5" x2="1068.61" y2="512.5"/>
  <g>
    <g>
      <path class="cls-16" d="M651.11,353.41v14.16c0,3.54-1.28,6.41-2.85,6.41h-21.3c-1.57,0-2.85-2.87-2.85-6.41v-14.16c0-3.54,1.28-6.41,2.85-6.41h21.3c1.57,0,2.85,2.87,2.85,6.41Z"/>
      <path d="M662.11,378.13v236.71c0,7.26-2.62,13.15-5.85,13.15h-37.3c-3.23,0-5.85-5.89-5.85-13.15v-236.71c0-7.26,2.62-13.15,5.85-13.15h37.3c3.23,0,5.85,5.89,5.85,13.15Z"/>
      <path class="cls-15" d="M655.18,615.64h-34.87c-.8,0-1.45-1.46-1.45-3.26v-231.21c0-1.8.65-3.26,1.45-3.26h34.85c.8,0,1.45,1.46,1.45,3.26v231.2c0,1.86-.65,3.26-1.43,3.26Z"/>
    </g>
    <polygon class="cls-19" points="644.77 435.52 625.45 499.3 635.55 499.3 630.55 546.57 649.85 483.57 639.77 483.57 644.77 435.52"/>
  </g>
  <text class="cls-12" transform="translate(676.11 625.1) scale(.59 1)"><tspan class="cls-13" x="0" y="0">E</tspan><tspan class="cls-17" x="219.25" y="0">R</tspan></text>
  <path class="cls-5" d="M1057.11,376.65c14.28-2.74,47.92-7.06,85.21,9.21,54.59,23.81,76.26,73.97,80.79,85.15"/>
  <g>
    <g>
      <path class="cls-14" d="M455.38,426.77c-56.66,0-102.75,46.09-102.75,102.75s46.09,102.75,102.75,102.75,102.75-46.09,102.75-102.75-46.09-102.75-102.75-102.75ZM361.64,538.47c-.28-2.95-.45-5.93-.45-8.96s.17-6.01.45-8.96l49.36-4.33,9.98,13.81-8.78,12.83-50.56-4.4ZM406.68,550.95l-25.18,36.8c-9.19-11.64-15.71-25.46-18.59-40.58l43.77,3.78ZM362.91,511.86c2.72-14.27,8.7-27.35,17.08-38.56l25.2,34.89-42.28,3.68ZM520.29,461.44c2.51,2.4,4.93,4.9,7.16,7.56l-29.95,38.51-18.48-1.6-1.33-15.33,42.6-29.15ZM476.85,480.8l-3.8-43.75c15.12,2.88,28.94,9.4,40.58,18.59l-36.77,25.16ZM532.83,476.05c7.33,10.58,12.52,22.71,15.02,35.81l-40.17-3.47,25.15-32.34ZM468.22,529.52c0,7.08-5.76,12.84-12.84,12.84s-12.84-5.76-12.84-12.84,5.76-12.84,12.84-12.84,12.84,5.76,12.84,12.84ZM479.83,515.14l-.05-.61,11.5,1-5.73,7.37-5.71-7.75ZM470.42,505.17l-.7-.06-6.45-4.66,6.35-4.35.79,9.06ZM441.44,505.03l-1.05.09.87-10,7.13,5.15-6.95,4.76ZM430.95,515.48l-4.83,7.06-5.18-7.18,10.1-.88-.09,1ZM426.31,537.42l4.6,6.37.06.71-8.98-.78,4.31-6.3ZM440.89,553.9l7.85,5.79-7.4,5.75-1.01-11.59.56.05ZM470.09,553.94l.28-.02-.9,10.41-6.53-4.81,7.16-5.57ZM479.74,544.31l5.62-7.23,4.83,6.56-10.48.92.02-.25ZM490.82,530.06l10.61-13.65,47.68,4.15c.28,2.95.45,5.93.45,8.96s-.17,6.01-.45,8.96l-48.93,4.29-9.36-12.71ZM547.85,547.18c-2.66,13.95-8.44,26.78-16.53,37.83l-25.2-34.2,41.73-3.63ZM464.34,435.78l4.43,50.54-12.87,8.81-13.78-9.95,4.29-49.4c2.95-.28,5.94-.45,8.96-.45s6.01.17,8.96.45ZM434.06,479.36l-34.92-25.22c11.21-8.39,24.3-14.37,38.57-17.09l-3.65,42.31ZM392.31,459.76l40.9,29.54-1.43,16.56-16.65,1.45-29.51-40.86c2.12-2.34,4.35-4.57,6.69-6.69ZM387.31,594.43l29.17-42.64,15.25,1.32,1.61,18.56-38.47,29.92c-2.66-2.24-5.16-4.65-7.56-7.16ZM434.22,581.83l3.49,40.15c-13.1-2.5-25.23-7.7-35.81-15.02l32.32-25.13ZM446.41,623.25l-4.17-47.65,13.67-10.63,12.69,9.35-4.25,48.93c-2.95.28-5.94.45-8.96.45s-6.01-.17-8.96-.45ZM476.64,580.25l34.22,25.21c-11.05,8.09-23.87,13.87-37.82,16.53l3.6-41.74ZM517.75,599.9l-40.25-29.66,1.47-17.08,17.14-1.49,29.64,40.22c-2.51,2.83-5.18,5.5-8.01,8.01Z"/>
      <path class="cls-18" d="M455.38,426.77c-56.66,0-102.75,46.09-102.75,102.75s46.09,102.75,102.75,102.75,102.75-46.09,102.75-102.75-46.09-102.75-102.75-102.75ZM361.64,538.47c-.28-2.95-.45-5.93-.45-8.96s.17-6.01.45-8.96l49.36-4.33,9.98,13.81-8.78,12.83-50.56-4.4ZM406.68,550.95l-25.18,36.8c-9.19-11.64-15.71-25.46-18.59-40.58l43.77,3.78ZM362.91,511.86c2.72-14.27,8.7-27.35,17.08-38.56l25.2,34.89-42.28,3.68ZM520.29,461.44c2.51,2.4,4.93,4.9,7.16,7.56l-29.95,38.51-18.48-1.6-1.33-15.33,42.6-29.15ZM476.85,480.8l-3.8-43.75c15.12,2.88,28.94,9.4,40.58,18.59l-36.77,25.16ZM532.83,476.05c7.33,10.58,12.52,22.71,15.02,35.81l-40.17-3.47,25.15-32.34ZM468.22,529.52c0,7.08-5.76,12.84-12.84,12.84s-12.84-5.76-12.84-12.84,5.76-12.84,12.84-12.84,12.84,5.76,12.84,12.84ZM479.83,515.14l-.05-.61,11.5,1-5.73,7.37-5.71-7.75ZM470.42,505.17l-.7-.06-6.45-4.66,6.35-4.35.79,9.06ZM441.44,505.03l-1.05.09.87-10,7.13,5.15-6.95,4.76ZM430.95,515.48l-4.83,7.06-5.18-7.18,10.1-.88-.09,1ZM426.31,537.42l4.6,6.37.06.71-8.98-.78,4.31-6.3ZM440.89,553.9l7.85,5.79-7.4,5.75-1.01-11.59.56.05ZM470.09,553.94l.28-.02-.9,10.41-6.53-4.81,7.16-5.57ZM479.74,544.31l5.62-7.23,4.83,6.56-10.48.92.02-.25ZM490.82,530.06l10.61-13.65,47.68,4.15c.28,2.95.45,5.93.45,8.96s-.17,6.01-.45,8.96l-48.93,4.29-9.36-12.71ZM547.85,547.18c-2.66,13.95-8.44,26.78-16.53,37.83l-25.2-34.2,41.73-3.63ZM464.34,435.78l4.43,50.54-12.87,8.81-13.78-9.95,4.29-49.4c2.95-.28,5.94-.45,8.96-.45s6.01.17,8.96.45ZM434.06,479.36l-34.92-25.22c11.21-8.39,24.3-14.37,38.57-17.09l-3.65,42.31ZM392.31,459.76l40.9,29.54-1.43,16.56-16.65,1.45-29.51-40.86c2.12-2.34,4.35-4.57,6.69-6.69ZM387.31,594.43l29.17-42.64,15.25,1.32,1.61,18.56-38.47,29.92c-2.66-2.24-5.16-4.65-7.56-7.16ZM434.22,581.83l3.49,40.15c-13.1-2.5-25.23-7.7-35.81-15.02l32.32-25.13ZM446.41,623.25l-4.17-47.65,13.67-10.63,12.69,9.35-4.25,48.93c-2.95.28-5.94.45-8.96.45s-6.01-.17-8.96-.45ZM476.64,580.25l34.22,25.21c-11.05,8.09-23.87,13.87-37.82,16.53l3.6-41.74ZM517.75,599.9l-40.25-29.66,1.47-17.08,17.14-1.49,29.64,40.22c-2.51,2.83-5.18,5.5-8.01,8.01Z"/>
    </g>
    <g>
      <circle class="cls-7" cx="455.11" cy="530" r="130"/>
      <ellipse class="cls-4" cx="455.33" cy="529.57" rx="116.78" ry="115.7"/>
      <circle class="cls-1" cx="455.11" cy="529.13" r="103.13"/>
    </g>
  </g>
  <g>
    <g>
      <path class="cls-14" d="M1080.45,427.63c-56.66,0-102.75,46.09-102.75,102.75s46.09,102.75,102.75,102.75,102.75-46.09,102.75-102.75-46.09-102.75-102.75-102.75ZM986.71,539.34c-.28-2.95-.45-5.93-.45-8.96s.17-6.01.45-8.96l49.36-4.33,9.98,13.81-8.78,12.83-50.56-4.4ZM1031.75,551.82l-25.18,36.8c-9.19-11.64-15.71-25.46-18.59-40.58l43.77,3.78ZM987.98,512.72c2.72-14.27,8.7-27.35,17.08-38.56l25.2,34.89-42.28,3.68ZM1145.36,462.31c2.51,2.4,4.93,4.9,7.16,7.56l-29.95,38.51-18.48-1.6-1.33-15.33,42.6-29.15ZM1101.91,481.66l-3.8-43.75c15.12,2.88,28.94,9.4,40.58,18.59l-36.77,25.16ZM1157.9,476.91c7.33,10.58,12.52,22.71,15.02,35.81l-40.17-3.47,25.15-32.34ZM1093.29,530.38c0,7.08-5.76,12.84-12.84,12.84s-12.84-5.76-12.84-12.84,5.76-12.84,12.84-12.84,12.84,5.76,12.84,12.84ZM1104.9,516.01l-.05-.61,11.5,1-5.73,7.37-5.71-7.75ZM1095.49,506.04l-.7-.06-6.45-4.66,6.35-4.35.79,9.06ZM1066.51,505.89l-1.05.09.87-10,7.13,5.15-6.95,4.76ZM1056.02,516.34l-4.83,7.06-5.18-7.18,10.1-.88-.09,1ZM1051.38,538.29l4.6,6.37.06.71-8.98-.78,4.31-6.3ZM1065.96,554.77l7.85,5.79-7.4,5.75-1.01-11.59.56.05ZM1095.16,554.8l.28-.02-.9,10.41-6.53-4.81,7.16-5.57ZM1104.81,545.17l5.62-7.23,4.83,6.56-10.48.92.02-.25ZM1115.89,530.92l10.61-13.65,47.68,4.15c.28,2.95.45,5.93.45,8.96s-.17,6.01-.45,8.96l-48.93,4.29-9.36-12.71ZM1172.92,548.04c-2.66,13.95-8.44,26.78-16.53,37.83l-25.2-34.2,41.73-3.63ZM1089.41,436.65l4.43,50.54-12.87,8.81-13.78-9.95,4.29-49.4c2.95-.28,5.94-.45,8.96-.45s6.01.17,8.96.45ZM1059.13,480.22l-34.92-25.22c11.21-8.39,24.3-14.37,38.57-17.09l-3.65,42.31ZM1017.38,460.63l40.9,29.54-1.43,16.56-16.65,1.45-29.51-40.86c2.12-2.34,4.35-4.57,6.69-6.69ZM1012.37,595.3l29.17-42.64,15.25,1.32,1.61,18.56-38.47,29.92c-2.66-2.24-5.16-4.65-7.56-7.16ZM1059.29,582.7l3.49,40.15c-13.1-2.5-25.23-7.7-35.81-15.02l32.32-25.13ZM1071.48,624.11l-4.17-47.65,13.67-10.63,12.69,9.35-4.25,48.93c-2.95.28-5.94.45-8.96.45s-6.01-.17-8.96-.45ZM1101.71,581.11l34.22,25.21c-11.05,8.09-23.87,13.87-37.82,16.53l3.6-41.74ZM1142.82,600.77l-40.25-29.66,1.47-17.08,17.14-1.49,29.64,40.22c-2.51,2.83-5.18,5.5-8.01,8.01Z"/>
      <path class="cls-11" d="M1080.45,427.63c-56.66,0-102.75,46.09-102.75,102.75s46.09,102.75,102.75,102.75,102.75-46.09,102.75-102.75-46.09-102.75-102.75-102.75ZM986.71,539.34c-.28-2.95-.45-5.93-.45-8.96s.17-6.01.45-8.96l49.36-4.33,9.98,13.81-8.78,12.83-50.56-4.4ZM1031.75,551.82l-25.18,36.8c-9.19-11.64-15.71-25.46-18.59-40.58l43.77,3.78ZM987.98,512.72c2.72-14.27,8.7-27.35,17.08-38.56l25.2,34.89-42.28,3.68ZM1145.36,462.31c2.51,2.4,4.93,4.9,7.16,7.56l-29.95,38.51-18.48-1.6-1.33-15.33,42.6-29.15ZM1101.91,481.66l-3.8-43.75c15.12,2.88,28.94,9.4,40.58,18.59l-36.77,25.16ZM1157.9,476.91c7.33,10.58,12.52,22.71,15.02,35.81l-40.17-3.47,25.15-32.34ZM1093.29,530.38c0,7.08-5.76,12.84-12.84,12.84s-12.84-5.76-12.84-12.84,5.76-12.84,12.84-12.84,12.84,5.76,12.84,12.84ZM1104.9,516.01l-.05-.61,11.5,1-5.73,7.37-5.71-7.75ZM1095.49,506.04l-.7-.06-6.45-4.66,6.35-4.35.79,9.06ZM1066.51,505.89l-1.05.09.87-10,7.13,5.15-6.95,4.76ZM1056.02,516.34l-4.83,7.06-5.18-7.18,10.1-.88-.09,1ZM1051.38,538.29l4.6,6.37.06.71-8.98-.78,4.31-6.3ZM1065.96,554.77l7.85,5.79-7.4,5.75-1.01-11.59.56.05ZM1095.16,554.8l.28-.02-.9,10.41-6.53-4.81,7.16-5.57ZM1104.81,545.17l5.62-7.23,4.83,6.56-10.48.92.02-.25ZM1115.89,530.92l10.61-13.65,47.68,4.15c.28,2.95.45,5.93.45,8.96s-.17,6.01-.45,8.96l-48.93,4.29-9.36-12.71ZM1172.92,548.04c-2.66,13.95-8.44,26.78-16.53,37.83l-25.2-34.2,41.73-3.63ZM1089.41,436.65l4.43,50.54-12.87,8.81-13.78-9.95,4.29-49.4c2.95-.28,5.94-.45,8.96-.45s6.01.17,8.96.45ZM1059.13,480.22l-34.92-25.22c11.21-8.39,24.3-14.37,38.57-17.09l-3.65,42.31ZM1017.38,460.63l40.9,29.54-1.43,16.56-16.65,1.45-29.51-40.86c2.12-2.34,4.35-4.57,6.69-6.69ZM1012.37,595.3l29.17-42.64,15.25,1.32,1.61,18.56-38.47,29.92c-2.66-2.24-5.16-4.65-7.56-7.16ZM1059.29,582.7l3.49,40.15c-13.1-2.5-25.23-7.7-35.81-15.02l32.32-25.13ZM1071.48,624.11l-4.17-47.65,13.67-10.63,12.69,9.35-4.25,48.93c-2.95.28-5.94.45-8.96.45s-6.01-.17-8.96-.45ZM1101.71,581.11l34.22,25.21c-11.05,8.09-23.87,13.87-37.82,16.53l3.6-41.74ZM1142.82,600.77l-40.25-29.66,1.47-17.08,17.14-1.49,29.64,40.22c-2.51,2.83-5.18,5.5-8.01,8.01Z"/>
    </g>
    <g>
      <circle class="cls-7" cx="1080.18" cy="530.86" r="130"/>
      <ellipse class="cls-4" cx="1080.39" cy="530.43" rx="116.78" ry="115.7"/>
      <circle class="cls-1" cx="1080.18" cy="530" r="103.13"/>
    </g>
  </g>
  <g>
    <path class="cls-10" d="M408.11,215c.34,56.22.68,112.45,1.02,168.67,12.06-.57,37.97-1.79,65.42-3.07,39.84-1.85,47.88-2.21,58.27-8.18,21.77-12.52,35.46-39.15,35.78-65.42.51-41.47-32.48-65.46-36.8-68.49-13.62-9.56-29.03-12.29-59.29-17.38-26.65-4.48-49-5.78-64.4-6.13Z"/>
    <path class="cls-6" d="M420.01,230.06c.29,47.14.57,94.29.86,141.43,10.12-.48,31.84-1.5,54.86-2.57,33.41-1.55,40.15-1.85,48.86-6.86,18.25-10.49,29.73-32.83,30-54.86.43-34.77-27.23-54.89-30.86-57.43-11.42-8.01-24.34-10.31-49.72-14.57-22.35-3.76-41.09-4.85-54-5.14Z"/>
    <path class="cls-8" d="M436.01,247.06c.22,36.61.44,73.21.67,109.82,7.85-.37,24.72-1.17,42.6-2,25.94-1.21,31.18-1.44,37.94-5.32,14.17-8.15,23.08-25.49,23.29-42.6.33-27-21.15-42.62-23.96-44.59-8.87-6.22-18.9-8-38.6-11.31-17.35-2.92-31.9-3.77-41.93-3.99Z"/>
  </g>
  <line class="cls-3" x1="560.11" y1="388" x2="398.61" y2="387.5"/>
  <line class="cls-9" x1="913.11" y1="203.5" x2="1003.11" y2="202.5"/>
</svg>