<?xml version="1.0" encoding="UTF-8"?>
<svg id="Solid" xmlns="http://www.w3.org/2000/svg" viewBox="0 0 339.89 142.89">
  <g>
    <path d="M274.08,89.09c-2.27,0-4.44.42-6.47,1.15l-9.69-20.35h9.44c1.59,0,2.88,1.29,2.88,2.88s-1.29,2.88-2.88,2.88h-.96c-1.06,0-1.92.86-1.92,1.92s.86,1.92,1.92,1.92h.96c3.71,0,6.72-3.01,6.72-6.72s-3.01-6.72-6.72-6.72h-12.48c-.66,0-1.27.34-1.62.89-.35.56-.39,1.26-.11,1.85l4.18,8.77h-29.1l-1.92-3.84h9.37c1.06,0,1.92-.86,1.92-1.92,0-5.29-4.31-9.6-9.6-9.6h-9.6v-11.52c0-4.24-3.44-7.68-7.68-7.68h-.15c-.94-6.5-6.53-11.52-13.29-11.52s-12.49,5.14-13.32,11.76c-3.41.82-5.88,3.83-5.88,7.44v15.36c0,4.24,3.44,7.68,7.68,7.68h2.11c.89,4.38,4.77,7.68,9.41,7.68h25.21l-6.62,9.93c-2.69-1.43-5.75-2.25-9-2.25h-19.2c-1.06,0-1.92.86-1.92,1.92s.86,1.92,1.92,1.92h7.73c-4.2,3.14-7.08,7.95-7.63,13.44h-5.86c-1.06,0-1.92.86-1.92,1.92s.86,1.92,1.92,1.92h5.86c.55,5.49,3.43,10.3,7.63,13.44h-17.33c-1.06,0-1.92.86-1.92,1.92s.86,1.92,1.92,1.92h28.8c9.94,0,18.14-7.59,19.1-17.28h15.46c.64,0,1.24-.32,1.6-.85l17.16-25.74,3.94,8.28c-5.54,3.37-9.26,9.45-9.26,16.4,0,6.28,3.05,11.86,7.73,15.36h-11.57c-1.06,0-1.92.86-1.92,1.92s.86,1.92,1.92,1.92h23.04c10.59,0,19.2-8.61,19.2-19.2s-8.61-19.2-19.2-19.2ZM197.28,35.33c5.29,0,9.6,4.31,9.6,9.6s-4.31,9.6-9.6,9.6-9.6-4.31-9.6-9.6,4.31-9.6,9.6-9.6ZM214.56,69.89h-28.8c-2.12,0-3.84-1.72-3.84-3.84v-15.36c0-1.51.86-2.81,2.14-3.44.68,3.9,3.05,7.23,6.32,9.2h-3.66c-1.06,0-1.92.86-1.92,1.92s.86,1.92,1.92,1.92h23.04c1.06,0,1.92-.86,1.92-1.92s-.86-1.92-1.92-1.92h-5.57c3.38-2.04,5.79-5.53,6.38-9.6h.15c2.12,0,3.84,1.72,3.84,3.84v19.2ZM206.88,115.97c-4.24,0-7.68-3.44-7.68-7.68s3.44-7.68,7.68-7.68c.88,0,1.72.18,2.51.46l-4.11,6.16c-.39.59-.43,1.35-.1,1.97.33.63.98,1.02,1.69,1.02h7.41c-.86,3.3-3.84,5.76-7.41,5.76ZM210.47,106.37l2.12-3.17c.8.9,1.39,1.98,1.7,3.17h-3.82ZM225.98,106.37c-.52-5.18-3.1-9.76-6.91-12.9l7.32-10.98,11.94,23.88h-12.35ZM241.68,104.47l-11.53-23.06h26.91l-15.38,23.06ZM274.08,115.97c-4.24,0-7.68-3.44-7.68-7.68,0-2.36,1.09-4.44,2.76-5.85l3.18,6.68c.33.69,1.02,1.09,1.74,1.09.28,0,.56-.06.82-.19.96-.46,1.37-1.6.91-2.56l-3.19-6.71c.47-.09.96-.15,1.46-.15,4.24,0,7.68,3.44,7.68,7.68s-3.44,7.68-7.68,7.68Z"/>
    <circle cx="197.28" cy="44.93" r="5.76"/>
    <path d="M197.28,27.65c1.06,0,1.92-.86,1.92-1.92v-11.52c0-1.06-.86-1.92-1.92-1.92s-1.92.86-1.92,1.92v11.52c0,1.06.86,1.92,1.92,1.92Z"/>
    <path d="M204.96,29.57c1.06,0,1.92-.86,1.92-1.92v-7.68c0-1.06-.86-1.92-1.92-1.92s-1.92.86-1.92,1.92v7.68c0,1.06.86,1.92,1.92,1.92Z"/>
    <path d="M212.64,37.25c1.06,0,1.92-.86,1.92-1.92v-7.68c0-1.06-.86-1.92-1.92-1.92s-1.92.86-1.92,1.92v7.68c0,1.06.86,1.92,1.92,1.92Z"/>
    <path d="M189.6,29.57c1.06,0,1.92-.86,1.92-1.92v-7.68c0-1.06-.86-1.92-1.92-1.92s-1.92.86-1.92,1.92v7.68c0,1.06.86,1.92,1.92,1.92Z"/>
    <path d="M181.92,39.17c1.06,0,1.92-.86,1.92-1.92v-9.6c0-1.06-.86-1.92-1.92-1.92s-1.92.86-1.92,1.92v9.6c0,1.06.86,1.92,1.92,1.92Z"/>
    <path d="M243.36,123.65h-7.68c-1.06,0-1.92.86-1.92,1.92s.86,1.92,1.92,1.92h7.68c1.06,0,1.92-.86,1.92-1.92s-.86-1.92-1.92-1.92Z"/>
    <path d="M228,123.65h-3.84c-1.06,0-1.92.86-1.92,1.92s.86,1.92,1.92,1.92h3.84c1.06,0,1.92-.86,1.92-1.92s-.86-1.92-1.92-1.92Z"/>
    <path d="M183.84,100.61c1.06,0,1.92-.86,1.92-1.92s-.86-1.92-1.92-1.92h-3.84c-1.06,0-1.92.86-1.92,1.92s.86,1.92,1.92,1.92h3.84Z"/>
    <path d="M231.84,50.69c1.06,0,1.92-.86,1.92-1.92v-5.76h1.92c1.06,0,1.92.86,1.92,1.92v3.84c0,1.06.86,1.92,1.92,1.92s1.92-.86,1.92-1.92v-3.84c0-1.48-.58-2.82-1.5-3.84.92-1.02,1.5-2.36,1.5-3.84,0-3.18-2.58-5.76-5.76-5.76h-3.84c-1.06,0-1.92.86-1.92,1.92v15.36c0,1.06.86,1.92,1.92,1.92ZM233.76,35.33h1.92c1.06,0,1.92.86,1.92,1.92s-.86,1.92-1.92,1.92h-1.92v-3.84Z"/>
    <path d="M247.2,50.69h7.68c1.06,0,1.92-.86,1.92-1.92s-.86-1.92-1.92-1.92h-5.76v-3.84h5.76c1.06,0,1.92-.86,1.92-1.92s-.86-1.92-1.92-1.92h-5.76v-3.84h5.76c1.06,0,1.92-.86,1.92-1.92s-.86-1.92-1.92-1.92h-7.68c-1.06,0-1.92.86-1.92,1.92v15.36c0,1.06.86,1.92,1.92,1.92Z"/>
    <path d="M277.92,35.33h1.92v13.44c0,1.06.86,1.92,1.92,1.92s1.92-.86,1.92-1.92v-13.44h1.92c1.06,0,1.92-.86,1.92-1.92s-.86-1.92-1.92-1.92h-7.68c-1.06,0-1.92.86-1.92,1.92s.86,1.92,1.92,1.92Z"/>
    <path d="M262.56,50.69c1.06,0,1.92-.86,1.92-1.92v-7.23l4.04,8.08c.33.66,1,1.06,1.72,1.06.15,0,.29-.02.44-.05.87-.21,1.48-.98,1.48-1.87v-15.36c0-1.06-.86-1.92-1.92-1.92s-1.92.86-1.92,1.92v7.23l-4.04-8.08c-.4-.8-1.3-1.21-2.16-1.01-.87.21-1.48.98-1.48,1.87v15.36c0,1.06.86,1.92,1.92,1.92Z"/>
  </g>
  <g>
    <path d="M150.64,127.44h-59.21c-13.06,0-25.34-5.09-34.58-14.32-9.24-9.24-14.32-21.51-14.32-34.57s5.09-25.34,14.32-34.58c9.23-9.24,21.51-14.32,34.58-14.32,1.04,0,1.89.84,1.89,1.89s-.84,1.89-1.89,1.89c-12.05,0-23.39,4.69-31.91,13.22-8.52,8.52-13.22,19.86-13.22,31.91s4.69,23.38,13.22,31.91c8.52,8.52,19.86,13.22,31.91,13.22h59.21c1.04,0,1.89.84,1.89,1.89s-.84,1.89-1.89,1.89Z"/>
    <path d="M70.52,59.52c-.48,0-.96-.18-1.33-.55l-5.54-5.54c-.74-.74-.74-1.93,0-2.67.74-.74,1.93-.74,2.67,0l5.54,5.54c.74.74.74,1.93,0,2.67-.37.37-.85.55-1.33.55Z"/>
    <path d="M91.43,50.85c-1.04,0-1.89-.84-1.89-1.89v-7.84c0-1.04.84-1.89,1.89-1.89s1.89.84,1.89,1.89v7.84c0,1.04-.84,1.89-1.89,1.89Z"/>
    <path d="M91.43,117.85c-1.04,0-1.89-.84-1.89-1.89v-7.84c0-1.04.84-1.89,1.89-1.89s1.89.84,1.89,1.89v7.84c0,1.04-.84,1.89-1.89,1.89Z"/>
    <path d="M64.98,106.89c-.48,0-.96-.18-1.33-.55-.74-.74-.74-1.93,0-2.67l5.54-5.54c.74-.74,1.93-.74,2.67,0,.74.74.74,1.93,0,2.67l-5.54,5.54c-.37.37-.85.55-1.33.55Z"/>
    <path d="M61.86,80.43h-7.84c-1.04,0-1.89-.84-1.89-1.89s.84-1.89,1.89-1.89h7.84c1.04,0,1.89.84,1.89,1.89s-.84,1.89-1.89,1.89Z"/>
    <path d="M91.43,117.85c-21.67,0-39.3-17.63-39.3-39.3s17.63-39.3,39.3-39.3c1.04,0,1.89.84,1.89,1.89s-.84,1.89-1.89,1.89c-19.59,0-35.53,15.94-35.53,35.53s15.94,35.53,35.53,35.53c1.04,0,1.89.84,1.89,1.89s-.84,1.89-1.89,1.89Z"/>
    <path d="M91.43,86.11c-4.17,0-7.57-3.4-7.57-7.57s3.39-7.57,7.57-7.57,7.57,3.39,7.57,7.57-3.39,7.57-7.57,7.57ZM91.43,74.75c-2.09,0-3.8,1.7-3.8,3.8s1.7,3.8,3.8,3.8,3.8-1.7,3.8-3.8-1.7-3.8-3.8-3.8Z"/>
    <path d="M87.42,76.41c-.48,0-.96-.18-1.33-.55l-8.59-8.59c-.74-.74-.74-1.93,0-2.67.74-.74,1.93-.74,2.67,0l8.59,8.59c.74.74.74,1.93,0,2.67-.37.37-.85.55-1.33.55Z"/>
    <path d="M78.83,98.59c-.41,0-.82-.13-1.17-.41-.82-.65-.96-1.83-.31-2.65l10.26-12.99c.65-.81,1.83-.96,2.65-.31.82.65.96,1.83.31,2.65l-10.26,12.99c-.37.47-.92.72-1.48.72Z"/>
    <path d="M116.01,127.44c-3.26,0-5.92-2.65-5.92-5.92v-34.16c0-3.26,2.65-5.92,5.92-5.92s5.92,2.65,5.92,5.92v34.16c0,3.26-2.65,5.92-5.92,5.92ZM116.01,85.22c-1.18,0-2.15.96-2.15,2.15v34.16c0,1.18.96,2.15,2.15,2.15s2.15-.96,2.15-2.15v-34.16c0-1.18-.96-2.15-2.15-2.15Z"/>
    <path d="M111.98,106.33h-6.88c-1.04,0-1.89-.84-1.89-1.89v-25.02c0-.61.29-1.18.79-1.53l10.12-7.26v-18.49l-8.74-7.08h-5.4c-1.04,0-1.89-.84-1.89-1.89s.84-1.89,1.89-1.89h6.06c.43,0,.85.15,1.19.42l9.96,8.06c.44.36.7.9.7,1.47v20.36c0,.61-.29,1.18-.79,1.53l-10.12,7.26v22.17h4.99c1.04,0,1.89.84,1.89,1.89,0,1.04-.84,1.89-1.89,1.89Z"/>
    <path d="M99.99,110.01c-.59,0-1.16-.27-1.53-.78-.61-.85-.41-2.02.43-2.63l5.11-3.68c.85-.61,2.02-.42,2.63.43.61.85.41,2.02-.43,2.63l-5.11,3.68c-.33.24-.72.35-1.1.35Z"/>
    <path d="M126.92,106.33h-6.88c-1.04,0-1.89-.84-1.89-1.89s.84-1.89,1.89-1.89h4.99v-22.17l-10.12-7.26c-.49-.35-.79-.92-.79-1.53v-20.36c0-.57.26-1.11.7-1.47l9.96-8.06c.34-.27.75-.42,1.19-.42h8.54c1.04,0,1.89.84,1.89,1.89s-.84,1.89-1.89,1.89h-7.87l-8.74,7.08v18.49l10.12,7.26c.49.35.79.92.79,1.53v25.02c0,1.04-.84,1.89-1.88,1.89Z"/>
    <path d="M146.33,49.36h-11.82c-1.04,0-1.89-.84-1.89-1.89v-8.62c0-1.04.84-1.89,1.89-1.89h11.82c3.42,0,6.19,2.78,6.19,6.2s-2.78,6.19-6.19,6.19ZM136.4,45.59h9.94c1.34,0,2.42-1.09,2.42-2.42s-1.09-2.42-2.42-2.42h-9.94v4.85Z"/>
    <path d="M144.12,111.79h-9.61c-.39,0-.78-.12-1.1-.36l-7.59-5.46c-.85-.61-1.04-1.79-.43-2.63.61-.85,1.79-1.04,2.63-.43l7.1,5.1h9c1.34,0,2.42-1.09,2.42-2.42,0-1.04.84-1.89,1.89-1.89s1.89.84,1.89,1.89c0,3.42-2.78,6.19-6.19,6.19Z"/>
  </g>
</svg>